<svg id="Layer_1" data-name="Layer 1" xmlns="http://www.w3.org/2000/svg" viewBox="0 0 307.05 148.56"><defs><style>.cls-1{fill:#fd2b25;}.cls-2{fill:#1f86fb;}.cls-3{fill:#ffb800;}.cls-4{fill:#00aa47;}</style></defs><path class="cls-1" d="M879.29,960l49.86-28.79a24.53,24.53,0,1,0-24.54-42.49l-86.15,49.74Z" transform="translate(-806.19 -885.44)"/><path class="cls-2" d="M916.86,1034a24.54,24.54,0,0,0,12.29-45.79L843,938.47A24.53,24.53,0,1,0,818.46,981l86.15,49.75A24.47,24.47,0,0,0,916.86,1034Z" transform="translate(-806.19 -885.44)"/><path class="cls-3" d="M1002.56,1034a24.41,24.41,0,0,0,12.24-3.29L1101,981l-60.06-22-50.63,29.23a24.54,24.54,0,0,0,12.29,45.79Z" transform="translate(-806.19 -885.44)"/><path class="cls-4" d="M1088.67,984.25A24.53,24.53,0,0,0,1101,938.47l-86.16-49.74a24.53,24.53,0,1,0-24.53,42.49L1076.43,981A24.41,24.41,0,0,0,1088.67,984.25Z" transform="translate(-806.19 -885.44)"/></svg>