<svg width="1469" height="150" viewBox="0 0 1469 150" fill="none" xmlns="http://www.w3.org/2000/svg">
<path d="M379.587 34.1808C379.236 32.9582 378.742 31.878 378.105 30.9401C377.469 29.9855 376.69 29.1815 375.769 28.5284C374.865 27.8585 373.826 27.3476 372.654 26.9959C371.498 26.6442 370.217 26.4684 368.81 26.4684C366.181 26.4684 363.869 27.1215 361.876 28.4279C359.9 29.7342 358.359 31.6351 357.254 34.1306C356.149 36.6093 355.596 39.6407 355.596 43.2248C355.596 46.8089 356.14 49.857 357.229 52.3692C358.317 54.8814 359.858 56.7991 361.851 58.1222C363.844 59.4285 366.197 60.0817 368.911 60.0817C371.373 60.0817 373.474 59.6462 375.216 58.7753C376.975 57.8877 378.315 56.6399 379.236 55.0321C380.174 53.4243 380.643 51.5234 380.643 49.3294L382.853 49.656H369.589V41.4662H391.118V47.9477C391.118 52.4697 390.164 56.3552 388.255 59.6044C386.345 62.8367 383.716 65.3322 380.366 67.0907C377.017 68.8325 373.181 69.7034 368.86 69.7034C364.037 69.7034 359.8 68.6399 356.149 66.5129C352.498 64.3692 349.65 61.3294 347.607 57.3936C345.581 53.4411 344.567 48.7516 344.567 43.3253C344.567 39.155 345.17 35.4369 346.376 32.1711C347.599 28.8885 349.307 26.1083 351.501 23.8306C353.695 21.5528 356.249 19.8194 359.163 18.6303C362.077 17.4412 365.234 16.8466 368.634 16.8466C371.548 16.8466 374.262 17.2737 376.774 18.1278C379.286 18.9652 381.513 20.1544 383.456 21.6952C385.416 23.236 387.015 25.0699 388.255 27.1969C389.494 29.3072 390.289 31.6351 390.641 34.1808H379.587ZM416.523 69.7537C412.621 69.7537 409.246 68.9246 406.399 67.2666C403.569 65.5918 401.383 63.2638 399.842 60.2826C398.301 57.2847 397.531 53.8095 397.531 49.857C397.531 45.871 398.301 42.3874 399.842 39.4062C401.383 36.4083 403.569 34.0803 406.399 32.4223C409.246 30.7475 412.621 29.9101 416.523 29.9101C420.425 29.9101 423.792 30.7475 426.622 32.4223C429.469 34.0803 431.663 36.4083 433.204 39.4062C434.745 42.3874 435.515 45.871 435.515 49.857C435.515 53.8095 434.745 57.2847 433.204 60.2826C431.663 63.2638 429.469 65.5918 426.622 67.2666C423.792 68.9246 420.425 69.7537 416.523 69.7537ZM416.573 61.4634C418.349 61.4634 419.831 60.9609 421.02 59.9561C422.209 58.9344 423.105 57.5443 423.708 55.7858C424.328 54.0273 424.638 52.0259 424.638 49.7816C424.638 47.5374 424.328 45.536 423.708 43.7775C423.105 42.0189 422.209 40.6288 421.02 39.6072C419.831 38.5856 418.349 38.0748 416.573 38.0748C414.781 38.0748 413.274 38.5856 412.051 39.6072C410.846 40.6288 409.933 42.0189 409.313 43.7775C408.71 45.536 408.409 47.5374 408.409 49.7816C408.409 52.0259 408.71 54.0273 409.313 55.7858C409.933 57.5443 410.846 58.9344 412.051 59.9561C413.274 60.9609 414.781 61.4634 416.573 61.4634ZM459.909 69.7537C456.007 69.7537 452.632 68.9246 449.785 67.2666C446.954 65.5918 444.769 63.2638 443.228 60.2826C441.687 57.2847 440.917 53.8095 440.917 49.857C440.917 45.871 441.687 42.3874 443.228 39.4062C444.769 36.4083 446.954 34.0803 449.785 32.4223C452.632 30.7475 456.007 29.9101 459.909 29.9101C463.811 29.9101 467.178 30.7475 470.008 32.4223C472.855 34.0803 475.049 36.4083 476.59 39.4062C478.131 42.3874 478.901 45.871 478.901 49.857C478.901 53.8095 478.131 57.2847 476.59 60.2826C475.049 63.2638 472.855 65.5918 470.008 67.2666C467.178 68.9246 463.811 69.7537 459.909 69.7537ZM459.959 61.4634C461.734 61.4634 463.217 60.9609 464.406 59.9561C465.595 58.9344 466.491 57.5443 467.094 55.7858C467.714 54.0273 468.023 52.0259 468.023 49.7816C468.023 47.5374 467.714 45.536 467.094 43.7775C466.491 42.0189 465.595 40.6288 464.406 39.6072C463.217 38.5856 461.734 38.0748 459.959 38.0748C458.167 38.0748 456.66 38.5856 455.437 39.6072C454.231 40.6288 453.319 42.0189 452.699 43.7775C452.096 45.536 451.795 47.5374 451.795 49.7816C451.795 52.0259 452.096 54.0273 452.699 55.7858C453.319 57.5443 454.231 58.9344 455.437 59.9561C456.66 60.9609 458.167 61.4634 459.959 61.4634ZM503.244 84.2742C499.778 84.2742 496.805 83.7969 494.326 82.8423C491.864 81.9044 489.905 80.6231 488.448 78.9986C486.991 77.374 486.044 75.5485 485.609 73.522L495.507 72.1905C495.808 72.9609 496.286 73.6811 496.939 74.351C497.592 75.0209 498.455 75.5569 499.526 75.9588C500.615 76.3775 501.938 76.5869 503.496 76.5869C505.824 76.5869 507.741 76.0174 509.249 74.8786C510.773 73.7564 511.535 71.8723 511.535 69.2261V62.1668H511.083C510.614 63.2387 509.91 64.2519 508.972 65.2066C508.034 66.1612 506.829 66.94 505.355 67.5429C503.881 68.1459 502.122 68.4473 500.079 68.4473C497.182 68.4473 494.544 67.7774 492.166 66.4376C489.804 65.081 487.92 63.0126 486.513 60.2324C485.123 57.4355 484.428 53.9016 484.428 49.6309C484.428 45.2597 485.14 41.6086 486.563 38.6777C487.987 35.7468 489.88 33.5528 492.241 32.0957C494.619 30.6386 497.224 29.9101 500.054 29.9101C502.214 29.9101 504.023 30.2785 505.48 31.0155C506.937 31.7356 508.11 32.64 508.997 33.7286C509.902 34.8005 510.597 35.8556 511.083 36.894H511.485V30.4125H522.111V69.3768C522.111 72.6594 521.307 75.4061 519.699 77.6169C518.092 79.8276 515.864 81.4857 513.017 82.591C510.187 83.7131 506.929 84.2742 503.244 84.2742ZM503.471 60.4083C505.196 60.4083 506.653 59.9812 507.842 59.127C509.048 58.2561 509.969 57.0168 510.605 55.409C511.258 53.7844 511.585 51.8416 511.585 49.5807C511.585 47.3197 511.267 45.3601 510.63 43.7021C509.994 42.0273 509.073 40.7293 507.867 39.8082C506.661 38.887 505.196 38.4265 503.471 38.4265C501.712 38.4265 500.23 38.9038 499.024 39.8584C497.818 40.7963 496.905 42.1027 496.286 43.7775C495.666 45.4523 495.356 47.3867 495.356 49.5807C495.356 51.8081 495.666 53.7342 496.286 55.3587C496.922 56.9665 497.835 58.2143 499.024 59.1019C500.23 59.9728 501.712 60.4083 503.471 60.4083ZM541.33 17.55V69H530.628V17.55H541.33ZM567.488 69.7537C563.519 69.7537 560.102 68.9498 557.238 67.3419C554.391 65.7174 552.197 63.4229 550.656 60.4585C549.115 57.4774 548.345 53.9519 548.345 49.8821C548.345 45.9128 549.115 42.4292 550.656 39.4313C552.197 36.4334 554.366 34.0971 557.163 32.4223C559.976 30.7475 563.276 29.9101 567.061 29.9101C569.606 29.9101 571.976 30.3204 574.17 31.1411C576.381 31.945 578.307 33.1592 579.948 34.7838C581.606 36.4083 582.896 38.4516 583.817 40.9135C584.738 43.3588 585.199 46.2227 585.199 49.5053V52.4446H552.616V45.8123H575.125C575.125 44.2715 574.79 42.9066 574.12 41.7175C573.45 40.5283 572.521 39.5988 571.332 38.9289C570.159 38.2422 568.794 37.8989 567.237 37.8989C565.612 37.8989 564.172 38.2757 562.916 39.0294C561.676 39.7663 560.705 40.7628 560.001 42.0189C559.298 43.2583 558.938 44.64 558.921 46.1641V52.4697C558.921 54.379 559.273 56.0286 559.976 57.4187C560.697 58.8088 561.71 59.8807 563.016 60.6344C564.322 61.388 565.872 61.7648 567.664 61.7648C568.853 61.7648 569.941 61.5974 570.93 61.2624C571.918 60.9274 572.764 60.425 573.467 59.7551C574.17 59.0852 574.706 58.2645 575.075 57.2931L584.973 57.9463C584.47 60.3245 583.44 62.4013 581.883 64.1766C580.342 65.9351 578.349 67.3084 575.904 68.2966C573.475 69.268 570.67 69.7537 567.488 69.7537ZM626.996 69H608.757V17.55H627.146C632.322 17.55 636.777 18.58 640.511 20.6401C644.246 22.6833 647.119 25.6226 649.128 29.4579C651.155 33.2932 652.168 37.8822 652.168 43.2248C652.168 48.5841 651.155 53.1899 649.128 57.0419C647.119 60.894 644.229 63.85 640.461 65.91C636.71 67.97 632.221 69 626.996 69ZM619.635 59.6797H626.544C629.759 59.6797 632.464 59.1103 634.658 57.9714C636.869 56.8158 638.527 55.0321 639.632 52.6204C640.754 50.192 641.315 47.0601 641.315 43.2248C641.315 39.423 640.754 36.3162 639.632 33.9045C638.527 31.4928 636.877 29.7175 634.683 28.5786C632.489 27.4398 629.784 26.8703 626.569 26.8703H619.635V59.6797ZM677.61 69.7537C673.641 69.7537 670.224 68.9498 667.361 67.3419C664.513 65.7174 662.319 63.4229 660.779 60.4585C659.238 57.4774 658.467 53.9519 658.467 49.8821C658.467 45.9128 659.238 42.4292 660.779 39.4313C662.319 36.4334 664.488 34.0971 667.285 32.4223C670.099 30.7475 673.398 29.9101 677.183 29.9101C679.729 29.9101 682.099 30.3204 684.293 31.1411C686.504 31.945 688.43 33.1592 690.071 34.7838C691.729 36.4083 693.019 38.4516 693.94 40.9135C694.861 43.3588 695.321 46.2227 695.321 49.5053V52.4446H662.738V45.8123H685.247C685.247 44.2715 684.913 42.9066 684.243 41.7175C683.573 40.5283 682.643 39.5988 681.454 38.9289C680.282 38.2422 678.917 37.8989 677.359 37.8989C675.735 37.8989 674.294 38.2757 673.038 39.0294C671.799 39.7663 670.827 40.7628 670.124 42.0189C669.421 43.2583 669.06 44.64 669.044 46.1641V52.4697C669.044 54.379 669.395 56.0286 670.099 57.4187C670.819 58.8088 671.832 59.8807 673.139 60.6344C674.445 61.388 675.994 61.7648 677.786 61.7648C678.975 61.7648 680.064 61.5974 681.052 61.2624C682.04 60.9274 682.886 60.425 683.589 59.7551C684.293 59.0852 684.829 58.2645 685.197 57.2931L695.095 57.9463C694.593 60.3245 693.563 62.4013 692.005 64.1766C690.464 65.9351 688.471 67.3084 686.026 68.2966C683.598 69.268 680.792 69.7537 677.61 69.7537ZM737.244 30.4125L723.753 69H711.695L698.204 30.4125H709.509L717.523 58.0217H717.925L725.914 30.4125H737.244ZM759.062 69.7537C755.093 69.7537 751.676 68.9498 748.813 67.3419C745.965 65.7174 743.771 63.4229 742.231 60.4585C740.69 57.4774 739.919 53.9519 739.919 49.8821C739.919 45.9128 740.69 42.4292 742.231 39.4313C743.771 36.4334 745.94 34.0971 748.737 32.4223C751.551 30.7475 754.85 29.9101 758.635 29.9101C761.181 29.9101 763.551 30.3204 765.745 31.1411C767.956 31.945 769.882 33.1592 771.523 34.7838C773.181 36.4083 774.471 38.4516 775.392 40.9135C776.313 43.3588 776.773 46.2227 776.773 49.5053V52.4446H744.19V45.8123H766.699C766.699 44.2715 766.365 42.9066 765.695 41.7175C765.025 40.5283 764.095 39.5988 762.906 38.9289C761.734 38.2422 760.369 37.8989 758.811 37.8989C757.187 37.8989 755.746 38.2757 754.49 39.0294C753.251 39.7663 752.279 40.7628 751.576 42.0189C750.873 43.2583 750.512 44.64 750.496 46.1641V52.4697C750.496 54.379 750.847 56.0286 751.551 57.4187C752.271 58.8088 753.284 59.8807 754.591 60.6344C755.897 61.388 757.446 61.7648 759.238 61.7648C760.427 61.7648 761.516 61.5974 762.504 61.2624C763.492 60.9274 764.338 60.425 765.041 59.7551C765.745 59.0852 766.281 58.2645 766.649 57.2931L776.547 57.9463C776.045 60.3245 775.015 62.4013 773.457 64.1766C771.916 65.9351 769.923 67.3084 767.478 68.2966C765.05 69.268 762.244 69.7537 759.062 69.7537ZM794.459 17.55V69H783.757V17.55H794.459ZM820.467 69.7537C816.565 69.7537 813.19 68.9246 810.343 67.2666C807.512 65.5918 805.327 63.2638 803.786 60.2826C802.245 57.2847 801.475 53.8095 801.475 49.857C801.475 45.871 802.245 42.3874 803.786 39.4062C805.327 36.4083 807.512 34.0803 810.343 32.4223C813.19 30.7475 816.565 29.9101 820.467 29.9101C824.369 29.9101 827.736 30.7475 830.566 32.4223C833.413 34.0803 835.607 36.4083 837.148 39.4062C838.689 42.3874 839.459 45.871 839.459 49.857C839.459 53.8095 838.689 57.2847 837.148 60.2826C835.607 63.2638 833.413 65.5918 830.566 67.2666C827.736 68.9246 824.369 69.7537 820.467 69.7537ZM820.517 61.4634C822.292 61.4634 823.775 60.9609 824.964 59.9561C826.153 58.9344 827.049 57.5443 827.652 55.7858C828.272 54.0273 828.581 52.0259 828.581 49.7816C828.581 47.5374 828.272 45.536 827.652 43.7775C827.049 42.0189 826.153 40.6288 824.964 39.6072C823.775 38.5856 822.292 38.0748 820.517 38.0748C818.725 38.0748 817.218 38.5856 815.995 39.6072C814.789 40.6288 813.877 42.0189 813.257 43.7775C812.654 45.536 812.353 47.5374 812.353 49.7816C812.353 52.0259 812.654 54.0273 813.257 55.7858C813.877 57.5443 814.789 58.9344 815.995 59.9561C817.218 60.9609 818.725 61.4634 820.517 61.4634ZM846.418 83.4703V30.4125H856.969V36.894H857.447C857.916 35.8556 858.594 34.8005 859.481 33.7286C860.386 32.64 861.558 31.7356 862.999 31.0155C864.456 30.2785 866.264 29.9101 868.425 29.9101C871.239 29.9101 873.835 30.647 876.213 32.1208C878.591 33.5779 880.492 35.7803 881.915 38.7279C883.339 41.6588 884.051 45.335 884.051 49.7565C884.051 54.0608 883.356 57.6951 881.966 60.6595C880.592 63.6071 878.717 65.843 876.338 67.3671C873.977 68.8744 871.331 69.6281 868.4 69.6281C866.323 69.6281 864.556 69.2847 863.099 68.598C861.659 67.9114 860.478 67.0489 859.557 66.0105C858.636 64.9553 857.932 63.8918 857.447 62.82H857.12V83.4703H846.418ZM856.894 49.7063C856.894 52.0007 857.212 54.0021 857.849 55.7104C858.485 57.4187 859.406 58.7502 860.612 59.7048C861.818 60.6427 863.283 61.1117 865.008 61.1117C866.75 61.1117 868.224 60.6344 869.43 59.6797C870.636 58.7083 871.548 57.3685 872.168 55.6602C872.805 53.9351 873.123 51.9505 873.123 49.7063C873.123 47.4788 872.813 45.5193 872.193 43.8277C871.574 42.1362 870.661 40.8131 869.455 39.8584C868.249 38.9038 866.767 38.4265 865.008 38.4265C863.267 38.4265 861.793 38.887 860.587 39.8082C859.398 40.7293 858.485 42.0357 857.849 43.7272C857.212 45.4188 856.894 47.4118 856.894 49.7063ZM908.771 69.7537C904.802 69.7537 901.385 68.9498 898.521 67.3419C895.674 65.7174 893.48 63.4229 891.939 60.4585C890.398 57.4774 889.628 53.9519 889.628 49.8821C889.628 45.9128 890.398 42.4292 891.939 39.4313C893.48 36.4334 895.649 34.0971 898.446 32.4223C901.259 30.7475 904.559 29.9101 908.344 29.9101C910.89 29.9101 913.259 30.3204 915.453 31.1411C917.664 31.945 919.59 33.1592 921.231 34.7838C922.89 36.4083 924.179 38.4516 925.1 40.9135C926.021 43.3588 926.482 46.2227 926.482 49.5053V52.4446H893.899V45.8123H916.408C916.408 44.2715 916.073 42.9066 915.403 41.7175C914.733 40.5283 913.804 39.5988 912.615 38.9289C911.442 38.2422 910.077 37.8989 908.52 37.8989C906.895 37.8989 905.455 38.2757 904.199 39.0294C902.959 39.7663 901.988 40.7628 901.285 42.0189C900.581 43.2583 900.221 44.64 900.204 46.1641V52.4697C900.204 54.379 900.556 56.0286 901.259 57.4187C901.98 58.8088 902.993 59.8807 904.299 60.6344C905.606 61.388 907.155 61.7648 908.947 61.7648C910.136 61.7648 911.225 61.5974 912.213 61.2624C913.201 60.9274 914.047 60.425 914.75 59.7551C915.453 59.0852 915.989 58.2645 916.358 57.2931L926.256 57.9463C925.753 60.3245 924.723 62.4013 923.166 64.1766C921.625 65.9351 919.632 67.3084 917.187 68.2966C914.758 69.268 911.953 69.7537 908.771 69.7537ZM933.466 69V30.4125H943.841V37.1452H944.243C944.947 34.7503 946.127 32.9415 947.786 31.7189C949.444 30.4795 951.353 29.8598 953.513 29.8598C954.049 29.8598 954.627 29.8933 955.247 29.9603C955.866 30.0273 956.411 30.1194 956.88 30.2367V39.7328C956.377 39.5821 955.682 39.4481 954.795 39.3309C953.907 39.2136 953.095 39.155 952.358 39.155C950.783 39.155 949.377 39.4983 948.137 40.185C946.915 40.8549 945.943 41.7928 945.223 42.9987C944.52 44.2045 944.168 45.5946 944.168 47.1689V69H933.466ZM1006.9 32.3469C1006.7 30.3204 1005.83 28.7461 1004.31 27.624C1002.79 26.5019 1000.72 25.9408 998.105 25.9408C996.33 25.9408 994.831 26.192 993.608 26.6945C992.386 27.1802 991.448 27.8585 990.794 28.7293C990.158 29.6002 989.84 30.5884 989.84 31.6938C989.806 32.6149 989.999 33.4188 990.418 34.1055C990.853 34.7921 991.448 35.3867 992.201 35.8891C992.955 36.3748 993.826 36.8019 994.814 37.1704C995.802 37.5221 996.857 37.8235 997.979 38.0748L1002.6 39.1801C1004.85 39.6826 1006.91 40.3525 1008.78 41.1899C1010.66 42.0273 1012.28 43.0573 1013.66 44.2799C1015.03 45.5025 1016.09 46.9428 1016.85 48.6009C1017.62 50.2589 1018.01 52.1599 1018.03 54.3036C1018.01 57.4522 1017.21 60.1822 1015.62 62.4934C1014.04 64.7879 1011.76 66.5715 1008.78 67.8444C1005.82 69.1005 1002.24 69.7285 998.055 69.7285C993.901 69.7285 990.284 69.0921 987.202 67.8193C984.137 66.5464 981.742 64.6623 980.017 62.1668C978.309 59.6546 977.413 56.5478 977.329 52.8465H987.855C987.972 54.5716 988.466 56.0119 989.337 57.1675C990.225 58.3064 991.406 59.1689 992.88 59.7551C994.37 60.3245 996.053 60.6092 997.929 60.6092C999.771 60.6092 1001.37 60.3413 1002.73 59.8053C1004.1 59.2694 1005.16 58.5241 1005.92 57.5695C1006.67 56.6148 1007.05 55.5178 1007.05 54.2785C1007.05 53.1229 1006.71 52.1515 1006.02 51.3643C1005.35 50.5772 1004.36 49.9072 1003.05 49.3546C1001.76 48.8019 1000.18 48.2994 998.306 47.8472L992.704 46.4404C988.366 45.3853 984.941 43.7356 982.429 41.4914C979.917 39.2471 978.669 36.2241 978.686 32.4223C978.669 29.3072 979.498 26.5856 981.173 24.2576C982.864 21.9296 985.184 20.1125 988.132 18.8061C991.079 17.4998 994.429 16.8466 998.18 16.8466C1002 16.8466 1005.33 17.4998 1008.18 18.8061C1011.04 20.1125 1013.27 21.9296 1014.86 24.2576C1016.45 26.5856 1017.27 29.282 1017.32 32.3469H1006.9ZM1045.67 30.4125V38.4516H1022.43V30.4125H1045.67ZM1027.71 21.1676H1038.41V57.1424C1038.41 58.1305 1038.56 58.9009 1038.86 59.4536C1039.16 59.9896 1039.58 60.3664 1040.12 60.5841C1040.67 60.8018 1041.3 60.9107 1042.02 60.9107C1042.53 60.9107 1043.03 60.8688 1043.53 60.7851C1044.03 60.6846 1044.42 60.6092 1044.69 60.559L1046.37 68.5227C1045.83 68.6902 1045.08 68.8828 1044.11 69.1005C1043.14 69.335 1041.96 69.4773 1040.57 69.5276C1037.99 69.6281 1035.73 69.2847 1033.78 68.4976C1031.86 67.7104 1030.36 66.4878 1029.29 64.8297C1028.22 63.1717 1027.69 61.0782 1027.71 58.5492V21.1676ZM1077.38 52.5702V30.4125H1088.09V69H1077.81V61.9909H1077.41C1076.54 64.2519 1075.09 66.0691 1073.06 67.4424C1071.05 68.8158 1068.6 69.5024 1065.7 69.5024C1063.12 69.5024 1060.85 68.9163 1058.89 67.7439C1056.93 66.5715 1055.4 64.9051 1054.3 62.7446C1053.21 60.5841 1052.66 57.9965 1052.64 54.9819V30.4125H1063.34V53.0726C1063.36 55.3504 1063.97 57.1508 1065.17 58.4739C1066.38 59.797 1068 60.4585 1070.02 60.4585C1071.31 60.4585 1072.52 60.1654 1073.64 59.5792C1074.76 58.9763 1075.67 58.0887 1076.35 56.9163C1077.06 55.7439 1077.4 54.2952 1077.38 52.5702ZM1110.87 69.6281C1107.93 69.6281 1105.28 68.8744 1102.9 67.3671C1100.54 65.843 1098.66 63.6071 1097.27 60.6595C1095.9 57.6951 1095.21 54.0608 1095.21 49.7565C1095.21 45.335 1095.93 41.6588 1097.35 38.7279C1098.77 35.7803 1100.67 33.5779 1103.03 32.1208C1105.41 30.647 1108.01 29.9101 1110.84 29.9101C1113 29.9101 1114.8 30.2785 1116.24 31.0155C1117.7 31.7356 1118.87 32.64 1119.76 33.7286C1120.66 34.8005 1121.35 35.8556 1121.82 36.894H1122.15V17.55H1132.82V69H1122.27V62.82H1121.82C1121.32 63.8918 1120.6 64.9553 1119.68 66.0105C1118.78 67.0489 1117.6 67.9114 1116.14 68.598C1114.7 69.2847 1112.94 69.6281 1110.87 69.6281ZM1114.26 61.1117C1115.98 61.1117 1117.44 60.6427 1118.63 59.7048C1119.83 58.7502 1120.75 57.4187 1121.39 55.7104C1122.04 54.0021 1122.37 52.0007 1122.37 49.7063C1122.37 47.4118 1122.05 45.4188 1121.42 43.7272C1120.78 42.0357 1119.86 40.7293 1118.65 39.8082C1117.45 38.887 1115.98 38.4265 1114.26 38.4265C1112.5 38.4265 1111.02 38.9038 1109.81 39.8584C1108.6 40.8131 1107.69 42.1362 1107.07 43.8277C1106.45 45.5193 1106.14 47.4788 1106.14 49.7063C1106.14 51.9505 1106.45 53.9351 1107.07 55.6602C1107.71 57.3685 1108.62 58.7083 1109.81 59.6797C1111.02 60.6344 1112.5 61.1117 1114.26 61.1117ZM1159.21 69.7537C1155.24 69.7537 1151.82 68.9498 1148.96 67.3419C1146.11 65.7174 1143.92 63.4229 1142.37 60.4585C1140.83 57.4774 1140.06 53.9519 1140.06 49.8821C1140.06 45.9128 1140.83 42.4292 1142.37 39.4313C1143.92 36.4334 1146.08 34.0971 1148.88 32.4223C1151.69 30.7475 1154.99 29.9101 1158.78 29.9101C1161.33 29.9101 1163.69 30.3204 1165.89 31.1411C1168.1 31.945 1170.03 33.1592 1171.67 34.7838C1173.32 36.4083 1174.61 38.4516 1175.54 40.9135C1176.46 43.3588 1176.92 46.2227 1176.92 49.5053V52.4446H1144.33V45.8123H1166.84C1166.84 44.2715 1166.51 42.9066 1165.84 41.7175C1165.17 40.5283 1164.24 39.5988 1163.05 38.9289C1161.88 38.2422 1160.51 37.8989 1158.96 37.8989C1157.33 37.8989 1155.89 38.2757 1154.63 39.0294C1153.39 39.7663 1152.42 40.7628 1151.72 42.0189C1151.02 43.2583 1150.66 44.64 1150.64 46.1641V52.4697C1150.64 54.379 1150.99 56.0286 1151.69 57.4187C1152.42 58.8088 1153.43 59.8807 1154.73 60.6344C1156.04 61.388 1157.59 61.7648 1159.38 61.7648C1160.57 61.7648 1161.66 61.5974 1162.65 61.2624C1163.64 60.9274 1164.48 60.425 1165.19 59.7551C1165.89 59.0852 1166.42 58.2645 1166.79 57.2931L1176.69 57.9463C1176.19 60.3245 1175.16 62.4013 1173.6 64.1766C1172.06 65.9351 1170.07 67.3084 1167.62 68.2966C1165.19 69.268 1162.39 69.7537 1159.21 69.7537ZM1194.6 46.6916V69H1183.9V30.4125H1194.1V37.2206H1194.55C1195.41 34.9764 1196.84 33.2011 1198.85 31.8947C1200.86 30.5716 1203.3 29.9101 1206.16 29.9101C1208.84 29.9101 1211.18 30.4963 1213.17 31.6686C1215.16 32.841 1216.71 34.5158 1217.82 36.693C1218.92 38.8535 1219.47 41.4327 1219.47 44.4306V69H1208.77V46.3399C1208.79 43.9784 1208.19 42.1362 1206.96 40.8131C1205.74 39.4732 1204.06 38.8033 1201.91 38.8033C1200.47 38.8033 1199.2 39.1131 1198.1 39.7328C1197.01 40.3525 1196.15 41.2569 1195.53 42.446C1194.93 43.6184 1194.62 45.0336 1194.6 46.6916ZM1248.43 30.4125V38.4516H1225.2V30.4125H1248.43ZM1230.47 21.1676H1241.17V57.1424C1241.17 58.1305 1241.32 58.9009 1241.63 59.4536C1241.93 59.9896 1242.35 60.3664 1242.88 60.5841C1243.43 60.8018 1244.07 60.9107 1244.79 60.9107C1245.29 60.9107 1245.8 60.8688 1246.3 60.7851C1246.8 60.6846 1247.19 60.6092 1247.45 60.559L1249.14 68.5227C1248.6 68.6902 1247.85 68.8828 1246.88 69.1005C1245.9 69.335 1244.72 69.4773 1243.33 69.5276C1240.75 69.6281 1238.49 69.2847 1236.55 68.4976C1234.62 67.7104 1233.13 66.4878 1232.05 64.8297C1230.98 63.1717 1230.45 61.0782 1230.47 58.5492V21.1676ZM1317.37 35.5625H1306.37C1306.17 34.139 1305.76 32.8745 1305.14 31.7691C1304.52 30.647 1303.73 29.6924 1302.75 28.9052C1301.78 28.118 1300.66 27.5151 1299.39 27.0964C1298.13 26.6777 1296.77 26.4684 1295.29 26.4684C1292.63 26.4684 1290.31 27.1299 1288.33 28.453C1286.36 29.7594 1284.83 31.6686 1283.74 34.1808C1282.65 36.6763 1282.1 39.7077 1282.1 43.275C1282.1 46.9428 1282.65 50.0245 1283.74 52.5199C1284.84 55.0154 1286.38 56.8995 1288.36 58.1724C1290.34 59.4452 1292.62 60.0817 1295.22 60.0817C1296.67 60.0817 1298.02 59.8891 1299.26 59.5039C1300.52 59.1187 1301.63 58.5576 1302.6 57.8207C1303.57 57.067 1304.38 56.1543 1305.01 55.0824C1305.67 54.0105 1306.12 52.7879 1306.37 51.4146L1317.37 51.4648C1317.09 53.8263 1316.38 56.104 1315.24 58.298C1314.12 60.4753 1312.6 62.4264 1310.69 64.1514C1308.8 65.8597 1306.54 67.2163 1303.91 68.2212C1301.3 69.2094 1298.34 69.7034 1295.04 69.7034C1290.45 69.7034 1286.35 68.665 1282.73 66.5883C1279.13 64.5115 1276.28 61.5053 1274.19 57.5695C1272.11 53.6337 1271.07 48.8689 1271.07 43.275C1271.07 37.6644 1272.13 32.8912 1274.24 28.9555C1276.35 25.0197 1279.21 22.0218 1282.83 19.9618C1286.45 17.885 1290.52 16.8466 1295.04 16.8466C1298.02 16.8466 1300.79 17.2653 1303.33 18.1027C1305.89 18.9401 1308.16 20.1627 1310.14 21.7705C1312.12 23.3616 1313.72 25.3127 1314.96 27.624C1316.22 29.9352 1317.02 32.5814 1317.37 35.5625ZM1335.68 17.55V69H1324.97V17.55H1335.68ZM1368.99 52.5702V30.4125H1379.7V69H1369.42V61.9909H1369.02C1368.15 64.2519 1366.7 66.0691 1364.67 67.4424C1362.66 68.8158 1360.21 69.5024 1357.31 69.5024C1354.73 69.5024 1352.46 68.9163 1350.5 67.7439C1348.55 66.5715 1347.01 64.9051 1345.91 62.7446C1344.82 60.5841 1344.27 57.9965 1344.25 54.9819V30.4125H1354.95V53.0726C1354.97 55.3504 1355.58 57.1508 1356.79 58.4739C1357.99 59.797 1359.61 60.4585 1361.63 60.4585C1362.92 60.4585 1364.13 60.1654 1365.25 59.5792C1366.37 58.9763 1367.28 58.0887 1367.96 56.9163C1368.67 55.7439 1369.01 54.2952 1368.99 52.5702ZM1388.46 69V17.55H1399.16V36.894H1399.49C1399.96 35.8556 1400.63 34.8005 1401.52 33.7286C1402.43 32.64 1403.6 31.7356 1405.04 31.0155C1406.5 30.2785 1408.3 29.9101 1410.46 29.9101C1413.28 29.9101 1415.87 30.647 1418.25 32.1208C1420.63 33.5779 1422.53 35.7803 1423.96 38.7279C1425.38 41.6588 1426.09 45.335 1426.09 49.7565C1426.09 54.0608 1425.4 57.6951 1424.01 60.6595C1422.63 63.6071 1420.76 65.843 1418.38 67.3671C1416.02 68.8744 1413.37 69.6281 1410.44 69.6281C1408.36 69.6281 1406.6 69.2847 1405.14 68.598C1403.7 67.9114 1402.52 67.0489 1401.6 66.0105C1400.68 64.9553 1399.97 63.8918 1399.49 62.82H1399.01V69H1388.46ZM1398.93 49.7063C1398.93 52.0007 1399.25 54.0021 1399.89 55.7104C1400.52 57.4187 1401.45 58.7502 1402.65 59.7048C1403.86 60.6427 1405.32 61.1117 1407.05 61.1117C1408.79 61.1117 1410.26 60.6344 1411.47 59.6797C1412.68 58.7083 1413.59 57.3685 1414.21 55.6602C1414.84 53.9351 1415.16 51.9505 1415.16 49.7063C1415.16 47.4788 1414.85 45.5193 1414.23 43.8277C1413.61 42.1362 1412.7 40.8131 1411.49 39.8584C1410.29 38.9038 1408.81 38.4265 1407.05 38.4265C1405.31 38.4265 1403.83 38.887 1402.63 39.8082C1401.44 40.7293 1400.52 42.0357 1399.89 43.7272C1399.25 45.4188 1398.93 47.4118 1398.93 49.7063ZM1465.34 41.416L1455.54 42.0189C1455.37 41.1815 1455.01 40.4279 1454.46 39.7579C1453.91 39.0713 1453.18 38.527 1452.27 38.125C1451.39 37.7063 1450.32 37.4969 1449.08 37.4969C1447.43 37.4969 1446.03 37.8487 1444.89 38.5521C1443.75 39.2387 1443.18 40.1599 1443.18 41.3155C1443.18 42.2366 1443.55 43.0154 1444.29 43.6518C1445.02 44.2883 1446.29 44.7991 1448.08 45.1843L1455.06 46.5911C1458.81 47.3615 1461.61 48.6009 1463.45 50.3092C1465.3 52.0175 1466.22 54.2617 1466.22 57.0419C1466.22 59.5709 1465.47 61.79 1463.98 63.6992C1462.51 65.6085 1460.48 67.0991 1457.9 68.171C1455.34 69.2261 1452.38 69.7537 1449.03 69.7537C1443.93 69.7537 1439.86 68.6902 1436.82 66.5632C1433.81 64.4194 1432.04 61.5053 1431.52 57.8207L1442.05 57.268C1442.37 58.8256 1443.14 60.0147 1444.36 60.8353C1445.58 61.6392 1447.15 62.0412 1449.06 62.0412C1450.93 62.0412 1452.44 61.6811 1453.58 60.9609C1454.74 60.224 1455.32 59.2778 1455.34 58.1222C1455.32 57.1508 1454.91 56.3552 1454.11 55.7356C1453.3 55.0991 1452.06 54.6134 1450.39 54.2785L1443.71 52.947C1439.94 52.1933 1437.13 50.887 1435.29 49.028C1433.47 47.1689 1432.55 44.7991 1432.55 41.9184C1432.55 39.4397 1433.22 37.3043 1434.56 35.5123C1435.92 33.7203 1437.82 32.3386 1440.27 31.3672C1442.73 30.3958 1445.61 29.9101 1448.91 29.9101C1453.78 29.9101 1457.62 30.9401 1460.41 33.0001C1463.23 35.0601 1464.87 37.8654 1465.34 41.416Z" fill="white"/>
<path d="M345.673 137V98.4125H368.81V102.558H350.345V115.596H367.077V119.741H350.345V137H345.673ZM376.813 137V98.4125H389.851C392.879 98.4125 395.353 98.9589 397.275 100.052C399.209 101.132 400.641 102.595 401.571 104.442C402.5 106.288 402.965 108.348 402.965 110.622C402.965 112.895 402.5 114.962 401.571 116.821C400.654 118.68 399.234 120.162 397.313 121.267C395.391 122.36 392.929 122.907 389.927 122.907H380.581V118.761H389.776C391.849 118.761 393.513 118.403 394.769 117.687C396.025 116.971 396.936 116.004 397.501 114.786C398.079 113.555 398.368 112.167 398.368 110.622C398.368 109.077 398.079 107.695 397.501 106.477C396.936 105.258 396.019 104.304 394.75 103.613C393.482 102.909 391.798 102.558 389.701 102.558H381.486V137H376.813ZM408.382 102.558V98.4125H437.323V102.558H425.189V137H420.516V102.558H408.382ZM484.78 98.4125H489.453V123.962C489.453 126.599 488.831 128.955 487.587 131.027C486.356 133.087 484.617 134.714 482.368 135.907C480.12 137.088 477.482 137.678 474.455 137.678C471.427 137.678 468.79 137.088 466.541 135.907C464.293 134.714 462.547 133.087 461.303 131.027C460.072 128.955 459.457 126.599 459.457 123.962V98.4125H464.129V123.585C464.129 125.469 464.544 127.146 465.373 128.616C466.202 130.073 467.383 131.222 468.915 132.064C470.46 132.893 472.307 133.307 474.455 133.307C476.603 133.307 478.449 132.893 479.994 132.064C481.539 131.222 482.72 130.073 483.536 128.616C484.365 127.146 484.78 125.469 484.78 123.585V98.4125ZM502.627 119.59V137H498.181V108.059H502.477V112.581H502.854C503.532 111.112 504.562 109.931 505.944 109.039C507.325 108.135 509.109 107.683 511.295 107.683C513.254 107.683 514.969 108.085 516.438 108.888C517.908 109.68 519.051 110.886 519.867 112.506C520.684 114.114 521.092 116.149 521.092 118.611V137H516.646V118.912C516.646 116.639 516.055 114.867 514.874 113.599C513.694 112.318 512.073 111.677 510.013 111.677C508.594 111.677 507.325 111.985 506.207 112.6C505.102 113.216 504.229 114.114 503.588 115.295C502.948 116.475 502.627 117.907 502.627 119.59ZM529.218 137V108.059H533.664V137H529.218ZM531.479 103.236C530.612 103.236 529.864 102.941 529.236 102.35C528.621 101.76 528.313 101.05 528.313 100.221C528.313 99.3923 528.621 98.6826 529.236 98.0922C529.864 97.5019 530.612 97.2067 531.479 97.2067C532.345 97.2067 533.086 97.5019 533.702 98.0922C534.33 98.6826 534.644 99.3923 534.644 100.221C534.644 101.05 534.33 101.76 533.702 102.35C533.086 102.941 532.345 103.236 531.479 103.236ZM565.473 108.059L554.771 137H550.249L539.547 108.059H544.371L552.36 131.121H552.661L560.65 108.059H565.473ZM582.44 137.603C579.652 137.603 577.246 136.987 575.224 135.756C573.214 134.513 571.663 132.779 570.57 130.556C569.49 128.32 568.95 125.72 568.95 122.756C568.95 119.791 569.49 117.179 570.57 114.918C571.663 112.644 573.183 110.873 575.13 109.604C577.089 108.323 579.375 107.683 581.988 107.683C583.495 107.683 584.984 107.934 586.453 108.436C587.923 108.939 589.261 109.755 590.467 110.886C591.673 112.004 592.633 113.486 593.349 115.332C594.065 117.179 594.423 119.452 594.423 122.153V124.037H572.115V120.193H589.901C589.901 118.56 589.575 117.103 588.922 115.822C588.281 114.541 587.364 113.53 586.171 112.789C584.99 112.048 583.596 111.677 581.988 111.677C580.217 111.677 578.684 112.117 577.391 112.996C576.109 113.863 575.123 114.993 574.433 116.387C573.742 117.782 573.396 119.276 573.396 120.872V123.434C573.396 125.62 573.773 127.472 574.527 128.992C575.293 130.5 576.354 131.649 577.711 132.44C579.068 133.219 580.644 133.609 582.44 133.609C583.608 133.609 584.664 133.445 585.606 133.119C586.56 132.779 587.383 132.277 588.074 131.611C588.765 130.933 589.299 130.091 589.675 129.087L593.971 130.292C593.519 131.749 592.759 133.031 591.691 134.136C590.624 135.229 589.305 136.083 587.735 136.699C586.165 137.301 584.4 137.603 582.44 137.603ZM601.188 137V108.059H605.483V112.431H605.785C606.312 110.999 607.267 109.837 608.649 108.945C610.031 108.053 611.588 107.607 613.321 107.607C613.648 107.607 614.056 107.613 614.546 107.626C615.036 107.639 615.407 107.657 615.658 107.683V112.205C615.507 112.167 615.162 112.11 614.622 112.035C614.094 111.947 613.535 111.903 612.945 111.903C611.538 111.903 610.282 112.198 609.176 112.789C608.084 113.366 607.217 114.17 606.576 115.2C605.948 116.218 605.634 117.38 605.634 118.686V137H601.188ZM641.428 114.541L637.434 115.671C637.183 115.006 636.812 114.359 636.322 113.731C635.845 113.09 635.192 112.563 634.363 112.148C633.534 111.733 632.472 111.526 631.179 111.526C629.407 111.526 627.932 111.934 626.751 112.751C625.583 113.555 624.999 114.579 624.999 115.822C624.999 116.927 625.4 117.8 626.204 118.441C627.008 119.082 628.264 119.616 629.973 120.043L634.269 121.098C636.856 121.726 638.784 122.687 640.053 123.98C641.322 125.262 641.956 126.913 641.956 128.936C641.956 130.594 641.479 132.076 640.524 133.382C639.582 134.689 638.263 135.719 636.567 136.472C634.871 137.226 632.899 137.603 630.651 137.603C627.699 137.603 625.256 136.962 623.322 135.681C621.387 134.4 620.163 132.528 619.648 130.066L623.868 129.011C624.27 130.569 625.03 131.737 626.148 132.516C627.278 133.294 628.754 133.684 630.576 133.684C632.648 133.684 634.294 133.244 635.512 132.365C636.743 131.473 637.359 130.405 637.359 129.162C637.359 128.157 637.007 127.315 636.303 126.637C635.6 125.946 634.52 125.431 633.063 125.092L628.239 123.962C625.589 123.334 623.642 122.36 622.398 121.041C621.167 119.71 620.552 118.045 620.552 116.048C620.552 114.415 621.01 112.971 621.927 111.715C622.857 110.459 624.119 109.473 625.715 108.757C627.322 108.041 629.144 107.683 631.179 107.683C634.042 107.683 636.291 108.311 637.924 109.567C639.569 110.823 640.737 112.481 641.428 114.541ZM648.649 137V108.059H653.096V137H648.649ZM650.91 103.236C650.044 103.236 649.296 102.941 648.668 102.35C648.053 101.76 647.745 101.05 647.745 100.221C647.745 99.3923 648.053 98.6826 648.668 98.0922C649.296 97.5019 650.044 97.2067 650.91 97.2067C651.777 97.2067 652.518 97.5019 653.134 98.0922C653.762 98.6826 654.076 99.3923 654.076 100.221C654.076 101.05 653.762 101.76 653.134 102.35C652.518 102.941 651.777 103.236 650.91 103.236ZM673.826 108.059V111.828H658.829V108.059H673.826ZM663.2 101.126H667.646V128.71C667.646 129.966 667.829 130.908 668.193 131.536C668.57 132.151 669.047 132.566 669.625 132.779C670.215 132.98 670.837 133.081 671.49 133.081C671.98 133.081 672.382 133.056 672.696 133.006C673.01 132.943 673.261 132.893 673.45 132.855L674.354 136.849C674.052 136.962 673.632 137.075 673.092 137.188C672.551 137.314 671.867 137.377 671.038 137.377C669.782 137.377 668.551 137.107 667.345 136.567C666.152 136.027 665.159 135.204 664.368 134.098C663.589 132.993 663.2 131.599 663.2 129.916V101.126ZM683.379 147.853C682.625 147.853 681.953 147.79 681.363 147.664C680.773 147.551 680.364 147.438 680.138 147.325L681.269 143.406C682.349 143.682 683.304 143.783 684.133 143.708C684.962 143.632 685.697 143.262 686.337 142.596C686.99 141.943 687.587 140.881 688.127 139.412L688.956 137.151L678.254 108.059H683.078L691.066 131.121H691.368L699.357 108.059H704.18L691.895 141.221C691.343 142.715 690.658 143.953 689.842 144.932C689.025 145.925 688.077 146.659 686.997 147.137C685.929 147.614 684.723 147.853 683.379 147.853ZM737.483 137H725.575V98.4125H738.01C741.753 98.4125 744.956 99.185 747.619 100.73C750.282 102.262 752.323 104.467 753.743 107.343C755.162 110.207 755.872 113.636 755.872 117.631C755.872 121.65 755.156 125.111 753.724 128.013C752.292 130.902 750.207 133.125 747.469 134.682C744.73 136.227 741.402 137 737.483 137ZM730.247 132.855H737.181C740.372 132.855 743.016 132.239 745.113 131.008C747.211 129.777 748.775 128.025 749.805 125.752C750.835 123.478 751.35 120.771 751.35 117.631C751.35 114.516 750.841 111.834 749.824 109.586C748.806 107.325 747.286 105.591 745.264 104.385C743.242 103.167 740.723 102.558 737.709 102.558H730.247V132.855ZM771.623 137.678C769.79 137.678 768.125 137.333 766.63 136.642C765.136 135.939 763.949 134.927 763.069 133.609C762.19 132.277 761.75 130.669 761.75 128.785C761.75 127.127 762.077 125.783 762.73 124.753C763.383 123.71 764.256 122.894 765.349 122.304C766.442 121.713 767.648 121.274 768.967 120.985C770.298 120.683 771.636 120.445 772.98 120.269C774.739 120.043 776.164 119.873 777.257 119.76C778.362 119.634 779.166 119.427 779.669 119.138C780.184 118.849 780.441 118.347 780.441 117.631V117.48C780.441 115.621 779.933 114.177 778.915 113.147C777.91 112.117 776.384 111.602 774.337 111.602C772.214 111.602 770.549 112.066 769.344 112.996C768.138 113.925 767.29 114.918 766.8 115.973L762.579 114.466C763.333 112.707 764.338 111.338 765.594 110.358C766.863 109.366 768.244 108.675 769.739 108.285C771.247 107.884 772.729 107.683 774.186 107.683C775.115 107.683 776.183 107.796 777.389 108.022C778.607 108.235 779.782 108.681 780.912 109.359C782.055 110.038 783.004 111.061 783.757 112.431C784.511 113.8 784.888 115.634 784.888 117.932V137H780.441V133.081H780.215C779.914 133.709 779.411 134.381 778.708 135.097C778.004 135.813 777.069 136.422 775.9 136.925C774.732 137.427 773.307 137.678 771.623 137.678ZM772.302 133.684C774.06 133.684 775.542 133.338 776.748 132.648C777.967 131.957 778.884 131.065 779.499 129.972C780.127 128.879 780.441 127.73 780.441 126.524V122.454C780.253 122.68 779.838 122.888 779.198 123.076C778.57 123.252 777.841 123.409 777.012 123.547C776.196 123.673 775.398 123.786 774.619 123.886C773.853 123.974 773.231 124.05 772.754 124.112C771.598 124.263 770.518 124.508 769.513 124.847C768.521 125.174 767.717 125.67 767.101 126.336C766.499 126.989 766.197 127.881 766.197 129.011C766.197 130.556 766.769 131.724 767.912 132.516C769.067 133.294 770.531 133.684 772.302 133.684ZM824.205 98.4125V137H819.683L798.656 106.703H798.279V137H793.607V98.4125H798.129L819.231 128.785H819.608V98.4125H824.205ZM841.469 137.678C839.635 137.678 837.971 137.333 836.476 136.642C834.981 135.939 833.794 134.927 832.915 133.609C832.036 132.277 831.596 130.669 831.596 128.785C831.596 127.127 831.923 125.783 832.576 124.753C833.229 123.71 834.102 122.894 835.195 122.304C836.288 121.713 837.493 121.274 838.812 120.985C840.144 120.683 841.482 120.445 842.826 120.269C844.584 120.043 846.01 119.873 847.103 119.76C848.208 119.634 849.012 119.427 849.514 119.138C850.029 118.849 850.287 118.347 850.287 117.631V117.48C850.287 115.621 849.778 114.177 848.761 113.147C847.756 112.117 846.23 111.602 844.182 111.602C842.059 111.602 840.395 112.066 839.189 112.996C837.983 113.925 837.135 114.918 836.646 115.973L832.425 114.466C833.179 112.707 834.184 111.338 835.44 110.358C836.708 109.366 838.09 108.675 839.585 108.285C841.092 107.884 842.574 107.683 844.031 107.683C844.961 107.683 846.029 107.796 847.235 108.022C848.453 108.235 849.627 108.681 850.758 109.359C851.901 110.038 852.849 111.061 853.603 112.431C854.357 113.8 854.733 115.634 854.733 117.932V137H850.287V133.081H850.061C849.759 133.709 849.257 134.381 848.553 135.097C847.85 135.813 846.914 136.422 845.746 136.925C844.578 137.427 843.152 137.678 841.469 137.678ZM842.147 133.684C843.906 133.684 845.388 133.338 846.594 132.648C847.812 131.957 848.729 131.065 849.345 129.972C849.973 128.879 850.287 127.73 850.287 126.524V122.454C850.098 122.68 849.684 122.888 849.043 123.076C848.415 123.252 847.687 123.409 846.858 123.547C846.041 123.673 845.244 123.786 844.465 123.886C843.699 123.974 843.077 124.05 842.599 124.112C841.444 124.263 840.364 124.508 839.359 124.847C838.366 125.174 837.563 125.67 836.947 126.336C836.344 126.989 836.043 127.881 836.043 129.011C836.043 130.556 836.614 131.724 837.757 132.516C838.913 133.294 840.376 133.684 842.147 133.684ZM867.296 119.59V137H862.849V108.059H867.145V112.581H867.522C868.2 111.112 869.23 109.931 870.612 109.039C871.994 108.135 873.778 107.683 875.963 107.683C877.923 107.683 879.637 108.085 881.107 108.888C882.577 109.68 883.72 110.886 884.536 112.506C885.353 114.114 885.761 116.149 885.761 118.611V137H881.314V118.912C881.314 116.639 880.724 114.867 879.543 113.599C878.362 112.318 876.742 111.677 874.682 111.677C873.263 111.677 871.994 111.985 870.876 112.6C869.771 113.216 868.898 114.114 868.257 115.295C867.616 116.475 867.296 117.907 867.296 119.59ZM905.568 148.456C903.42 148.456 901.574 148.179 900.029 147.627C898.484 147.087 897.196 146.371 896.166 145.479C895.149 144.599 894.338 143.657 893.735 142.652L897.278 140.165C897.68 140.693 898.188 141.296 898.804 141.974C899.419 142.665 900.261 143.262 901.329 143.764C902.409 144.279 903.822 144.537 905.568 144.537C907.904 144.537 909.832 143.971 911.352 142.841C912.872 141.71 913.632 139.939 913.632 137.528V131.649H913.255C912.929 132.177 912.464 132.83 911.861 133.609C911.271 134.375 910.416 135.059 909.299 135.662C908.193 136.253 906.698 136.548 904.814 136.548C902.478 136.548 900.38 135.995 898.521 134.89C896.675 133.784 895.211 132.177 894.131 130.066C893.063 127.956 892.53 125.394 892.53 122.379C892.53 119.415 893.051 116.833 894.093 114.635C895.136 112.424 896.587 110.716 898.446 109.51C900.305 108.292 902.453 107.683 904.89 107.683C906.774 107.683 908.269 107.997 909.374 108.625C910.492 109.24 911.346 109.944 911.936 110.735C912.539 111.514 913.004 112.154 913.331 112.657H913.783V108.059H918.079V137.829C918.079 140.316 917.513 142.338 916.383 143.896C915.265 145.466 913.758 146.615 911.861 147.344C909.977 148.085 907.879 148.456 905.568 148.456ZM905.417 132.553C907.201 132.553 908.708 132.145 909.939 131.329C911.17 130.512 912.106 129.338 912.747 127.805C913.387 126.273 913.707 124.439 913.707 122.304C913.707 120.218 913.393 118.378 912.765 116.783C912.137 115.188 911.208 113.938 909.977 113.034C908.746 112.129 907.226 111.677 905.417 111.677C903.533 111.677 901.963 112.154 900.707 113.109C899.463 114.064 898.527 115.345 897.899 116.953C897.284 118.56 896.976 120.344 896.976 122.304C896.976 124.313 897.29 126.091 897.918 127.636C898.559 129.168 899.501 130.374 900.745 131.253C902.001 132.12 903.558 132.553 905.417 132.553Z" fill="white"/>
<g clip-path="url(#clip0_8_12)">
<path d="M73.1 74.5599L122.96 45.7699C125.75 44.1586 128.195 42.0135 130.156 39.4572C132.117 36.9009 133.555 33.9834 134.389 30.8712C135.222 27.759 135.434 24.5132 135.013 21.319C134.592 18.1248 133.546 15.0449 131.935 12.2549C130.324 9.46499 128.179 7.01976 125.622 5.05882C123.066 3.09788 120.148 1.65962 117.036 0.826217C113.924 -0.00718892 110.678 -0.219421 107.484 0.201583C104.29 0.622587 101.21 1.66857 98.42 3.27989L12.27 53.0199L73.1 74.5599Z" fill="white"/>
<path d="M110.67 148.56C116.073 148.564 121.326 146.784 125.615 143.497C129.903 140.21 132.987 135.6 134.387 130.382C135.788 125.163 135.427 119.628 133.361 114.636C131.295 109.644 127.639 105.473 122.96 102.77L36.8099 53.0302C31.17 49.776 24.4685 48.8955 18.1794 50.5824C11.8904 52.2693 6.52911 56.3855 3.2749 62.0253C0.0206935 67.6651 -0.859866 74.3666 0.827024 80.6557C2.51391 86.9447 6.63007 92.306 12.2699 95.5603L98.4199 145.31C102.147 147.451 106.372 148.572 110.67 148.56Z" fill="white"/>
<path d="M196.37 148.56C200.668 148.56 204.89 147.425 208.61 145.27L294.81 95.5601L234.75 73.5601L184.12 102.79C179.441 105.492 175.785 109.663 173.719 114.656C171.653 119.648 171.292 125.183 172.692 130.401C174.093 135.62 177.177 140.23 181.465 143.517C185.753 146.804 191.007 148.584 196.41 148.58L196.37 148.56Z" fill="white"/>
<path d="M282.48 98.8101C287.887 98.8269 293.149 97.0564 297.446 93.774C301.743 90.4915 304.836 85.8811 306.242 80.6596C307.648 75.4381 307.29 69.8983 305.222 64.9016C303.155 59.9049 299.494 55.7314 294.81 53.0301L208.65 3.2901C205.86 1.67944 202.78 0.634082 199.586 0.213685C196.392 -0.206712 193.147 0.00609648 190.035 0.839967C186.923 1.67384 184.006 3.11242 181.451 5.07361C178.895 7.0348 176.75 9.48021 175.14 12.2701C173.529 15.0601 172.484 18.1399 172.063 21.3339C171.643 24.5278 171.856 27.7733 172.69 30.8849C173.523 33.9966 174.962 36.9136 176.923 39.4693C178.884 42.025 181.33 44.1694 184.12 45.7801L270.24 95.5601C273.963 97.7014 278.185 98.8225 282.48 98.8101Z" fill="white"/>
</g>
<defs>
<clipPath id="clip0_8_12">
<rect width="307.05" height="148.56" fill="white"/>
</clipPath>
</defs>
</svg>
