<?xml version="1.0" standalone="no"?>
<!DOCTYPE svg PUBLIC "-//W3C//DTD SVG 20010904//EN"
 "http://www.w3.org/TR/2001/REC-SVG-20010904/DTD/svg10.dtd">
<svg version="1.0" xmlns="http://www.w3.org/2000/svg"
 width="8018.000000pt" height="3834.000000pt" viewBox="0 0 8018.000000 3834.000000"
 preserveAspectRatio="xMidYMid meet">

<g transform="translate(0.000000,3834.000000) scale(0.100000,-0.100000)"
fill="#000000" stroke="none">
<path d="M44481 38330 c-815 -55 -1566 -488 -2018 -1165 -216 -322 -355 -681
-418 -1081 -22 -138 -31 -480 -16 -629 44 -430 186 -836 419 -1190 109 -167
218 -299 368 -445 142 -139 248 -224 399 -322 55 -36 1207 -704 2560 -1485
1353 -781 3448 -1991 4655 -2689 1207 -697 2255 -1298 2328 -1335 242 -123
509 -207 793 -250 114 -17 190 -22 364 -23 232 0 332 9 535 50 1222 245 2110
1330 2110 2579 0 882 -454 1722 -1190 2202 -120 78 -9424 5450 -9544 5510
-409 205 -890 303 -1345 273z"/>
<path d="M35225 38319 c-327 -30 -657 -124 -942 -268 -79 -39 -9261 -5334
-9368 -5402 -29 -19 -29 -19 -7 -25 12 -4 22 -9 22 -13 0 -4 -30 -24 -66 -45
-165 -97 -382 -273 -535 -434 -846 -892 -962 -2245 -281 -3271 183 -276 450
-544 727 -728 65 -43 7988 -4625 9347 -5405 610 -350 1286 -449 1955 -287 928
225 1665 941 1918 1864 111 404 122 819 35 1246 -28 132 -114 393 -174 527
-221 491 -599 913 -1064 1187 -70 41 -1295 749 -2722 1573 -1427 824 -2595
1502 -2595 1506 0 5 1204 703 2675 1553 1471 849 2718 1572 2771 1607 298 198
593 504 782 812 268 439 401 944 384 1464 -9 273 -49 495 -134 750 -284 855
-990 1505 -1868 1721 -260 63 -613 92 -860 68z"/>
<path d="M5089 14505 c-417 -57 -785 -240 -1083 -540 -306 -307 -476 -641
-543 -1069 -21 -138 -24 -468 -4 -606 29 -210 97 -426 192 -610 100 -196 216
-348 397 -521 342 -328 754 -498 1252 -516 360 -13 677 52 969 198 173 87 311
190 466 350 280 287 412 591 456 1039 11 123 7 349 -9 435 l-7 40 -898 3 -897
2 0 -220 0 -220 675 0 676 0 -5 -32 c-40 -245 -89 -393 -179 -542 -188 -309
-495 -511 -892 -583 -128 -24 -438 -23 -560 1 -292 58 -536 187 -745 396 -350
349 -490 833 -400 1375 66 394 308 754 656 977 119 77 290 144 457 180 139 30
466 33 597 4 267 -58 500 -176 665 -337 l81 -78 169 170 170 170 -75 73 c-256
246 -614 408 -1018 460 -149 19 -426 20 -563 1z"/>
<path d="M46479 14509 c-249 -36 -481 -151 -655 -324 -192 -190 -274 -387
-274 -656 0 -269 87 -481 271 -660 165 -162 307 -235 799 -414 343 -125 489
-193 614 -287 190 -143 271 -358 221 -591 -38 -179 -168 -332 -352 -413 -139
-62 -368 -88 -519 -61 -311 57 -582 310 -697 652 -13 39 -27 69 -31 69 -7 -2
-438 -176 -444 -179 -7 -5 65 -190 105 -270 157 -312 424 -550 738 -658 170
-58 256 -72 465 -72 205 1 295 13 463 66 244 78 475 239 596 418 108 159 160
322 168 532 14 330 -77 572 -296 789 -167 166 -375 280 -776 425 -608 221
-768 324 -830 540 -27 91 -17 223 22 306 58 122 143 203 288 274 107 53 207
75 340 75 133 0 232 -22 341 -75 149 -73 291 -220 340 -353 10 -26 18 -48 19
-50 1 -1 94 37 206 84 112 47 212 89 221 92 16 7 14 14 -15 83 -51 117 -104
196 -192 288 -106 111 -214 191 -349 256 -124 60 -215 89 -356 110 -102 16
-337 18 -431 4z"/>
<path d="M65810 14504 c-433 -58 -796 -244 -1105 -565 -301 -313 -461 -655
-515 -1099 -15 -125 -12 -421 5 -553 45 -346 183 -676 388 -932 61 -76 214
-230 292 -294 335 -277 764 -422 1244 -421 533 2 1017 202 1375 569 l90 92
-30 28 c-16 15 -93 90 -172 166 l-143 139 -87 -85 c-248 -243 -468 -367 -765
-431 -135 -29 -424 -31 -562 -4 -334 64 -621 229 -828 475 -159 189 -257 396
-308 648 -27 136 -36 405 -20 553 44 393 216 718 507 959 277 230 595 332 988
318 217 -7 369 -44 541 -132 123 -63 204 -123 325 -241 l105 -102 169 164 168
164 -78 81 c-278 286 -610 451 -1017 504 -145 19 -423 18 -567 -1z"/>
<path d="M16490 12580 l0 -1860 240 0 240 0 0 1860 0 1860 -240 0 -240 0 0
-1860z"/>
<path d="M21540 12580 l0 -1860 593 0 c325 0 653 5 727 10 504 38 881 200
1195 515 341 341 505 776 505 1333 0 270 -29 466 -97 671 -199 598 -682 1019
-1313 1145 -203 41 -318 46 -982 46 l-628 0 0 -1860z m1445 1387 c287 -52 503
-155 688 -327 207 -194 325 -422 384 -740 25 -133 25 -515 0 -647 -41 -217
-130 -433 -237 -575 -168 -222 -403 -377 -678 -448 -179 -45 -258 -52 -699
-57 l-423 -5 0 1412 0 1412 438 -5 c344 -3 456 -7 527 -20z"/>
<path d="M33020 12580 l0 -1860 235 0 235 0 0 1860 0 1860 -235 0 -235 0 0
-1860z"/>
<path d="M54884 13773 c4 -368 9 -712 12 -765 3 -64 2 -98 -5 -98 -5 0 -24 20
-40 44 -44 64 -146 161 -222 211 -382 254 -908 241 -1275 -33 -93 -69 -230
-209 -297 -304 -101 -141 -183 -335 -221 -522 -39 -185 -38 -440 0 -631 95
-467 442 -869 856 -989 272 -79 565 -54 813 68 161 80 288 186 366 305 32 49
39 18 39 -165 l0 -174 225 0 225 0 0 1860 0 1860 -241 0 -241 0 6 -667z m-678
-864 c171 -24 298 -90 434 -228 186 -188 262 -388 262 -691 0 -287 -75 -492
-247 -678 -159 -171 -377 -255 -619 -239 -118 9 -180 26 -296 83 -80 40 -109
62 -191 143 -201 201 -278 418 -266 750 6 173 27 264 91 396 163 338 478 513
832 464z"/>
<path d="M68010 12580 l0 -1860 235 0 235 0 0 1860 0 1860 -235 0 -235 0 0
-1860z"/>
<path d="M71890 12580 l0 -1860 225 0 225 0 2 178 c2 125 6 177 14 177 7 0 32
-27 56 -60 180 -245 517 -387 878 -372 294 13 549 132 760 354 215 225 331
462 376 765 22 149 15 421 -15 553 -61 275 -183 496 -386 700 -198 198 -402
297 -676 326 -361 40 -738 -107 -932 -361 -56 -73 -84 -90 -72 -43 4 15 9 360
12 766 l5 737 -236 0 -236 0 0 -1860z m1462 315 c198 -51 388 -202 499 -400
149 -266 159 -685 23 -957 -86 -172 -218 -309 -369 -384 -134 -66 -195 -79
-360 -78 -131 0 -146 2 -235 33 -213 72 -370 214 -469 421 -146 305 -127 731
43 1004 135 217 333 347 576 379 62 9 227 -2 292 -18z"/>
<path d="M48598 13653 l-3 -388 -222 -3 -223 -2 0 -215 0 -215 225 0 224 0 3
-787 c4 -786 4 -788 26 -862 94 -305 313 -474 646 -497 156 -11 476 37 476 72
0 7 -31 102 -70 210 -38 109 -70 199 -70 199 0 1 -26 -7 -57 -18 -39 -13 -86
-20 -143 -21 -77 -1 -92 2 -152 32 -85 42 -131 93 -160 179 l-23 68 -3 712 -3
713 313 2 313 3 3 212 2 213 -312 2 -313 3 -3 388 -2 387 -235 0 -235 0 -2
-387z"/>
<path d="M61678 13653 l-3 -388 -222 -3 -223 -2 0 -215 0 -215 225 0 224 0 3
-797 3 -798 24 -70 c54 -163 138 -278 263 -361 145 -97 333 -137 551 -117 121
11 307 49 307 63 0 4 -33 99 -72 212 l-73 205 -55 -20 c-80 -29 -219 -29 -281
0 -60 27 -125 86 -150 136 -46 90 -49 130 -49 860 l0 687 310 0 310 0 0 215 0
215 -310 0 -310 0 0 390 0 390 -235 0 -235 0 -2 -387z"/>
<path d="M8670 13340 c-241 -30 -439 -109 -628 -252 -396 -300 -576 -809 -485
-1368 45 -277 168 -517 367 -715 187 -185 382 -288 652 -342 126 -25 416 -25
534 0 271 58 470 166 663 361 252 255 371 566 371 971 -1 407 -115 703 -377
972 -242 249 -514 366 -882 377 -77 3 -174 1 -215 -4z m368 -446 c242 -60 463
-254 561 -492 108 -262 99 -628 -20 -865 -94 -185 -257 -340 -433 -411 -145
-57 -371 -71 -521 -30 -278 75 -504 309 -587 609 -19 71 -22 104 -22 290 0
200 1 214 27 298 104 336 356 567 672 617 81 12 240 5 323 -16z"/>
<path d="M11575 13339 c-161 -19 -330 -72 -464 -146 -221 -120 -427 -338 -534
-565 -152 -322 -176 -760 -61 -1111 65 -198 166 -360 318 -512 187 -185 382
-288 652 -342 126 -25 416 -25 534 0 303 64 536 203 729 433 212 254 305 529
305 904 -1 407 -121 709 -388 976 -193 193 -377 293 -636 345 -113 22 -343 32
-455 18z m373 -445 c141 -35 271 -111 383 -225 190 -192 275 -466 248 -790
-20 -231 -96 -403 -248 -563 -166 -174 -381 -256 -631 -242 -209 11 -356 75
-509 220 -206 197 -294 459 -269 809 29 412 321 747 703 807 81 12 240 5 323
-16z"/>
<path d="M14450 13344 c-14 -2 -56 -9 -95 -15 -347 -57 -679 -321 -856 -684
-103 -211 -142 -389 -142 -650 -1 -196 16 -312 69 -475 84 -262 251 -498 466
-661 368 -276 904 -292 1283 -36 73 50 175 145 222 210 19 26 39 47 45 47 7 0
9 -78 6 -232 -6 -269 -18 -333 -92 -483 -100 -201 -247 -322 -471 -387 -70
-20 -102 -23 -255 -23 -166 0 -179 2 -255 28 -203 71 -372 224 -450 407 -10
25 -20 46 -20 47 -2 3 -438 -177 -444 -183 -9 -8 55 -140 102 -213 59 -90 176
-214 267 -281 152 -113 381 -199 607 -230 141 -19 400 -8 533 23 251 59 434
161 601 334 173 179 270 388 314 678 13 85 15 293 15 1398 l0 1297 -225 0
-225 0 0 -176 c0 -120 -3 -175 -11 -172 -6 2 -34 33 -62 68 -135 166 -359 297
-592 345 -78 16 -285 28 -335 19z m385 -449 c219 -55 414 -225 525 -456 71
-149 84 -215 84 -444 1 -237 -13 -306 -94 -470 -86 -173 -209 -300 -365 -376
-102 -49 -176 -68 -295 -76 -230 -14 -430 61 -594 224 -162 161 -245 347 -265
593 -27 343 69 616 290 824 112 105 248 172 404 197 69 11 238 2 310 -16z"/>
<path d="M18450 13335 c-335 -49 -598 -209 -809 -495 -145 -195 -229 -437
-250 -721 -27 -365 59 -701 246 -961 67 -94 223 -247 312 -307 133 -91 287
-154 459 -188 138 -27 416 -25 551 5 250 56 464 169 634 336 113 110 257 314
229 324 -6 2 -101 48 -211 102 l-199 98 -41 -63 c-160 -246 -364 -374 -627
-392 -346 -23 -675 177 -807 491 -33 79 -67 228 -67 299 l0 47 1001 0 1002 0
-6 163 c-8 249 -56 456 -148 638 -61 123 -112 193 -213 297 -171 176 -356 272
-610 318 -119 22 -333 26 -446 9z m412 -444 c269 -69 466 -282 503 -543 l7
-48 -735 0 -736 0 15 53 c89 302 293 499 573 552 97 19 270 12 373 -14z"/>
<path d="M25921 13340 c-271 -35 -500 -148 -696 -344 -236 -237 -357 -514
-385 -883 -27 -351 59 -691 239 -943 211 -297 510 -476 866 -519 485 -59 953
131 1227 499 82 110 116 172 98 178 -8 3 -103 49 -212 103 l-196 98 -41 -63
c-159 -246 -364 -375 -627 -393 -322 -21 -622 143 -778 427 -45 84 -84 221
-93 326 l-6 84 1002 0 1001 0 0 108 c0 316 -84 616 -233 837 -63 92 -212 241
-304 302 -127 84 -267 138 -437 169 -103 19 -328 26 -425 14z m390 -449 c198
-51 367 -187 449 -362 29 -63 69 -214 58 -224 -2 -3 -334 -4 -736 -3 l-730 3
28 88 c42 130 101 228 196 322 111 111 233 173 389 199 64 10 271 -4 346 -23z"/>
<path d="M31150 13335 c-295 -42 -544 -178 -736 -403 -155 -182 -240 -355
-296 -603 -20 -92 -23 -130 -23 -334 0 -253 9 -316 68 -494 65 -198 169 -361
326 -514 184 -178 366 -273 619 -324 124 -25 415 -25 532 0 304 65 569 221
746 441 75 93 153 218 139 223 -6 2 -101 48 -212 102 l-202 99 -26 -44 c-77
-131 -223 -273 -347 -335 -129 -65 -312 -92 -469 -70 -275 40 -526 233 -632
485 -33 79 -67 228 -67 299 l0 47 1001 0 1002 0 -6 163 c-9 251 -48 428 -137
614 -151 318 -410 536 -733 618 -175 44 -369 55 -547 30z m414 -445 c261 -67
469 -289 502 -537 l7 -53 -732 0 c-718 0 -731 0 -731 19 0 42 64 195 112 269
115 175 268 279 467 317 98 19 270 12 375 -15z"/>
<path d="M35048 13340 c-306 -35 -568 -166 -779 -388 -173 -181 -273 -378
-331 -646 -30 -137 -32 -463 -5 -601 41 -208 124 -402 236 -552 78 -105 221
-241 328 -310 250 -163 572 -232 898 -192 282 34 513 143 716 337 203 193 320
403 380 680 30 140 37 409 15 560 -45 302 -163 540 -376 752 -191 192 -397
299 -658 345 -108 19 -321 27 -424 15z m381 -450 c262 -73 481 -285 569 -553
84 -252 65 -583 -46 -803 -157 -312 -449 -482 -791 -461 -362 23 -650 270
-748 642 -23 89 -26 119 -27 275 0 148 3 188 22 264 65 260 229 470 458 584
161 81 384 102 563 52z"/>
<path d="M38105 13339 c-163 -22 -323 -82 -455 -170 -86 -58 -201 -168 -236
-228 -38 -64 -44 -43 -44 144 l0 175 -225 0 -225 0 0 -1830 0 -1830 235 0 235
0 0 573 c0 314 -5 646 -11 735 -6 90 -7 167 -4 170 4 4 21 -11 39 -33 17 -22
58 -68 91 -103 293 -312 844 -394 1255 -187 104 53 208 131 305 230 202 207
314 415 376 705 20 89 23 135 23 305 0 169 -4 216 -22 302 -56 257 -161 466
-334 660 -173 195 -366 312 -596 363 -103 23 -309 33 -407 19z m191 -430 c297
-41 553 -268 652 -579 37 -115 46 -182 46 -335 1 -279 -64 -469 -224 -654
-103 -120 -229 -201 -377 -243 -102 -29 -313 -32 -413 -4 -282 76 -496 303
-577 611 -24 90 -26 118 -27 285 -1 163 2 196 23 275 114 441 478 702 897 644z"/>
<path d="M40895 13344 c-324 -35 -577 -165 -789 -403 -161 -182 -264 -397
-312 -656 -29 -152 -26 -450 4 -605 96 -478 430 -858 864 -984 262 -76 573
-72 823 9 261 85 515 279 663 504 34 52 62 100 62 106 0 7 -93 57 -207 111
l-207 100 -50 -75 c-27 -42 -89 -115 -137 -163 -72 -71 -105 -95 -181 -132
-136 -67 -198 -81 -358 -81 -109 1 -150 5 -213 23 -232 66 -432 235 -527 446
-34 75 -65 198 -76 298 l-6 68 1003 2 1004 3 3 50 c5 74 -16 293 -38 402 -108
522 -450 872 -935 958 -91 16 -316 27 -390 19z m351 -454 c129 -33 217 -83
315 -180 114 -114 164 -211 188 -362 l8 -48 -734 0 -735 0 7 33 c4 17 20 67
37 109 95 249 311 428 563 468 85 13 259 3 351 -20z"/>
<path d="M56845 13335 c-235 -33 -431 -119 -603 -266 -239 -203 -387 -471
-443 -800 -18 -108 -21 -150 -16 -324 4 -167 9 -218 31 -307 63 -269 184 -480
383 -669 233 -222 496 -322 853 -323 181 -1 235 4 355 34 44 11 87 22 95 24
92 23 283 132 409 232 112 90 276 291 305 374 4 11 -46 40 -204 117 l-209 101
-26 -44 c-109 -186 -290 -332 -475 -384 -462 -129 -935 166 -1024 640 -9 45
-16 102 -16 126 l0 44 1000 0 1000 0 0 121 c0 642 -341 1139 -873 1274 -174
43 -369 54 -542 30z m409 -445 c262 -67 469 -288 502 -537 l7 -53 -732 0
c-718 0 -731 0 -731 19 0 41 64 195 112 268 114 175 269 281 465 318 100 19
272 12 377 -15z"/>
<path d="M59855 13340 c-251 -40 -528 -205 -641 -384 -49 -78 -54 -66 -54 129
l0 175 -225 0 -225 0 0 -1270 0 -1270 235 0 234 0 3 783 c3 770 4 783 25 860
31 107 101 238 175 327 141 166 322 242 542 225 298 -23 474 -162 542 -430 16
-64 18 -144 21 -917 l4 -848 235 0 235 0 -4 903 c-3 894 -3 903 -26 1002 -46
204 -119 344 -245 471 -121 120 -250 188 -431 225 -106 22 -315 32 -400 19z"/>
<path d="M75595 13338 c-326 -36 -596 -185 -734 -403 -73 -115 -108 -317 -81
-472 32 -194 175 -366 395 -476 111 -55 230 -93 530 -168 215 -54 301 -80 372
-114 165 -78 243 -175 243 -305 0 -57 -5 -74 -32 -120 -51 -85 -167 -161 -295
-195 -84 -23 -236 -30 -318 -16 -87 15 -206 62 -268 104 -107 74 -218 207
-271 325 -11 23 -23 41 -27 40 -88 -32 -409 -176 -409 -183 0 -5 20 -50 45
-98 115 -229 323 -425 553 -522 291 -122 672 -126 969 -9 168 66 346 205 433
338 128 197 140 468 30 686 -61 121 -180 232 -336 312 -127 65 -197 88 -532
174 -163 42 -326 87 -362 102 -212 83 -294 214 -226 357 42 88 130 156 263
202 68 23 94 27 203 27 103 0 138 -4 200 -23 186 -57 310 -150 395 -296 10
-16 28 -11 210 65 110 45 204 85 208 90 5 4 -4 32 -18 61 -184 366 -641 574
-1140 517z"/>
<path d="M43835 13333 c-113 -16 -264 -78 -384 -157 -94 -63 -201 -178 -241
-260 -54 -109 -60 -96 -60 139 l0 205 -225 0 -225 0 0 -1270 0 -1270 235 0
235 0 0 698 c0 383 5 738 10 789 30 285 235 543 495 623 57 18 94 21 205 21
84 0 156 -6 190 -15 30 -8 56 -13 57 -12 2 1 115 359 139 438 13 42 -284 91
-431 71z"/>
<path d="M27468 13217 c9 -24 240 -596 512 -1270 l495 -1227 236 0 236 0 31
73 c83 200 1002 2456 1002 2461 0 3 -112 6 -249 6 l-249 0 -34 -87 c-18 -49
-189 -492 -378 -986 -190 -493 -349 -896 -354 -894 -5 2 -176 444 -380 982
l-371 980 -257 3 -258 2 18 -43z"/>
<path d="M50143 12343 c3 -894 4 -920 24 -1004 56 -228 154 -394 297 -506 257
-201 688 -251 1007 -118 160 67 338 204 411 316 17 27 36 48 42 46 7 -2 12
-66 14 -180 l2 -177 225 0 225 0 0 1270 0 1270 -240 0 -240 0 0 -767 c0 -874
2 -853 -85 -1028 -102 -207 -261 -340 -455 -381 -87 -19 -261 -14 -348 10
-194 53 -320 175 -381 369 l-26 82 -3 858 -3 857 -235 0 -235 0 4 -917z"/>
<path d="M69050 12436 c0 -499 4 -865 10 -927 52 -516 318 -800 804 -860 120
-15 290 -6 391 21 209 56 424 196 531 346 25 35 50 64 55 64 5 0 9 -78 9 -180
l0 -180 225 0 225 0 0 1270 0 1270 -235 0 -234 0 -3 -782 c-3 -723 -5 -788
-22 -848 -60 -211 -200 -403 -356 -484 -97 -51 -150 -66 -260 -73 -167 -10
-317 26 -431 102 -137 93 -206 227 -229 446 -6 60 -10 410 -10 870 l0 769
-235 0 -235 0 0 -824z"/>
<path d="M30459 6987 c-143 -40 -228 -143 -237 -287 -5 -90 7 -140 50 -204 62
-94 156 -141 278 -140 88 1 155 31 219 99 69 73 84 111 85 220 1 79 -2 96 -26
140 -34 64 -100 128 -158 154 -60 26 -153 34 -211 18z"/>
<path d="M40640 6991 c-97 -20 -192 -97 -233 -189 -29 -66 -29 -189 0 -253 98
-216 380 -262 537 -88 94 105 108 268 32 387 -68 108 -213 169 -336 143z"/>
<path d="M15300 5170 l0 -1790 225 0 225 0 0 770 0 770 735 0 735 0 0 210 0
210 -735 0 -735 0 0 590 0 590 815 0 815 0 0 220 0 220 -1040 0 -1040 0 0
-1790z"/>
<path d="M17910 5170 l0 -1790 225 0 225 0 0 725 0 725 403 0 c437 0 543 7
685 45 184 49 330 134 479 278 162 157 251 316 295 527 27 128 21 365 -11 485
-96 356 -413 660 -787 755 -133 34 -260 40 -895 40 l-619 0 0 -1790z m1372
1339 c29 -6 91 -29 137 -51 104 -50 228 -167 285 -269 184 -333 15 -758 -354
-891 -64 -23 -72 -23 -527 -26 l-463 -3 0 626 0 625 435 0 c274 0 454 -4 487
-11z"/>
<path d="M20490 6740 l0 -220 500 0 500 0 0 -1570 0 -1570 230 0 230 0 0 1570
0 1570 500 0 500 0 0 220 0 220 -1230 0 -1230 0 0 -220z"/>
<path d="M24353 5733 c4 -1211 4 -1230 25 -1342 98 -511 410 -884 857 -1024
138 -43 264 -60 445 -60 407 0 720 124 962 381 174 186 271 390 330 697 21
108 22 136 25 1343 l4 1232 -230 0 -230 0 -3 -1247 -3 -1248 -27 -97 c-82
-296 -268 -503 -528 -586 -100 -32 -173 -42 -306 -42 -266 0 -443 67 -605 229
-98 98 -153 186 -197 311 -63 181 -62 152 -62 1477 l0 1203 -231 0 -230 0 4
-1227z"/>
<path d="M46970 5170 l0 -1792 658 5 c666 5 717 7 907 47 592 123 1054 525
1239 1081 80 240 116 541 96 812 -25 350 -117 637 -285 887 -233 348 -577 586
-988 685 -228 55 -263 57 -969 62 l-658 5 0 -1792z m1455 1321 c560 -125 908
-518 976 -1103 17 -148 7 -435 -20 -571 -92 -458 -368 -780 -792 -921 -193
-65 -227 -68 -716 -73 l-443 -4 0 1351 0 1352 448 -5 c416 -4 454 -6 547 -26z"/>
<path d="M54080 5170 l0 -1790 226 0 226 0 -6 1383 c-4 760 -9 1417 -12 1460
-5 63 -3 77 9 77 9 0 390 -603 923 -1460 l909 -1459 238 -1 237 0 0 1790 0
1790 -226 0 -226 0 6 -1347 c3 -742 8 -1370 12 -1396 5 -41 4 -48 -10 -45 -8
1 -406 629 -884 1393 l-869 1390 -276 3 -277 2 0 -1790z"/>
<path d="M41780 6205 l0 -375 -215 0 -215 0 0 -210 0 -210 215 0 214 0 4 -752
c3 -676 5 -760 20 -818 93 -348 389 -530 798 -491 125 12 289 47 289 62 0 7
-100 294 -129 371 l-10 26 -61 -19 c-89 -28 -200 -26 -265 5 -99 46 -150 112
-174 224 -7 36 -11 265 -11 722 l0 670 300 0 300 0 0 210 0 210 -300 0 -300 0
0 375 0 375 -230 0 -230 0 0 -375z"/>
<path d="M28685 5900 c-256 -36 -508 -181 -634 -364 -18 -25 -36 -46 -41 -46
-6 0 -10 69 -10 170 l0 170 -220 0 -220 0 0 -1225 0 -1225 230 0 230 0 0 743
c0 708 1 748 20 823 51 205 199 403 362 485 86 44 159 59 279 59 301 0 489
-131 566 -395 16 -55 18 -135 21 -887 l3 -828 230 0 231 0 -5 858 c-5 917 -5
918 -57 1079 -99 308 -311 500 -622 563 -106 22 -281 32 -363 20z"/>
<path d="M34740 5903 c-85 -7 -211 -34 -298 -64 -170 -60 -297 -144 -439 -293
-137 -143 -220 -280 -281 -463 -56 -164 -67 -246 -67 -478 0 -227 10 -301 62
-460 103 -315 324 -575 608 -718 304 -151 721 -164 1049 -32 245 99 472 294
600 517 l27 47 -197 96 c-108 52 -200 95 -204 95 -4 0 -27 -30 -52 -67 -112
-169 -254 -281 -423 -335 -41 -14 -101 -21 -190 -25 -163 -7 -263 14 -399 84
-75 39 -108 64 -192 147 -83 84 -107 115 -142 186 -47 95 -76 200 -87 308 l-7
72 966 0 966 0 0 93 c-1 646 -334 1132 -860 1256 -140 33 -298 45 -440 34z
m365 -446 c244 -80 414 -277 448 -519 l6 -38 -705 0 c-578 0 -704 2 -704 13 0
8 11 45 24 83 84 248 251 410 488 474 110 30 331 23 443 -13z"/>
<path d="M38897 5898 c-181 -18 -368 -83 -503 -175 -81 -56 -188 -171 -225
-244 -45 -90 -69 -196 -69 -307 0 -302 177 -510 545 -639 39 -14 199 -57 356
-98 308 -78 402 -115 484 -187 66 -58 96 -116 103 -193 4 -56 1 -72 -22 -119
-41 -84 -120 -144 -255 -194 -90 -34 -294 -43 -390 -17 -199 52 -345 171 -451
368 l-42 77 -31 -14 c-191 -80 -354 -151 -360 -156 -11 -10 41 -123 96 -209
56 -85 170 -207 257 -273 206 -157 517 -237 811 -208 250 24 434 96 602 235
169 140 249 308 249 520 0 307 -167 523 -507 658 -49 20 -231 72 -403 116
-333 86 -429 122 -500 185 -143 130 -92 316 113 416 33 16 87 36 120 45 76 19
241 19 325 0 148 -35 326 -156 381 -259 13 -25 28 -46 33 -46 14 0 379 151
390 161 6 5 -4 34 -23 71 -141 267 -436 449 -793 488 -110 11 -165 11 -291 -2z"/>
<path d="M51120 5900 c-328 -34 -584 -166 -777 -400 -42 -50 -50 -67 -41 -75
7 -7 98 -65 201 -130 l188 -118 16 24 c9 13 52 60 97 104 94 93 185 144 315
176 113 28 293 24 391 -10 96 -33 191 -93 267 -169 113 -112 163 -233 163
-399 0 -46 -2 -83 -4 -83 -2 0 -37 16 -79 35 -85 39 -221 77 -342 96 -119 19
-409 16 -530 -5 -413 -72 -688 -300 -755 -626 -98 -474 189 -886 690 -993 136
-28 334 -28 452 1 196 48 356 153 484 317 33 41 65 75 72 75 9 0 12 -41 12
-170 l0 -170 215 0 215 0 0 818 c0 899 -1 922 -61 1086 -118 324 -394 540
-767 600 -120 20 -315 27 -422 16z m531 -1333 c99 -26 199 -70 258 -115 33
-25 34 -25 28 -89 -4 -35 -19 -101 -35 -147 -71 -206 -265 -396 -482 -472 -92
-32 -275 -44 -361 -24 -149 34 -285 133 -341 248 -31 62 -33 74 -33 167 0 91
3 105 29 155 43 83 82 126 158 180 144 101 264 131 508 126 147 -3 190 -8 271
-29z"/>
<path d="M58175 5900 c-292 -32 -518 -134 -702 -320 -68 -68 -131 -147 -122
-153 7 -5 373 -234 385 -240 6 -4 34 22 62 57 92 115 246 211 387 241 91 19
254 19 330 0 115 -29 221 -90 311 -179 121 -120 157 -203 170 -390 6 -83 5
-98 -7 -93 -247 109 -395 140 -674 140 -254 0 -432 -36 -610 -125 -202 -100
-338 -250 -402 -443 -25 -74 -27 -93 -27 -250 -1 -189 7 -232 71 -360 105
-213 321 -381 570 -444 409 -105 769 10 1010 322 70 90 73 85 73 -113 l0 -170
215 0 216 0 -4 848 c-3 823 -4 849 -25 934 -45 186 -127 333 -253 454 -196
189 -426 275 -765 288 -71 3 -165 1 -209 -4z m515 -1328 c113 -30 181 -58 249
-102 l60 -39 -5 -53 c-3 -29 -12 -79 -20 -112 -60 -246 -310 -484 -571 -542
-105 -23 -275 -16 -358 16 -171 65 -278 180 -305 327 -42 236 151 453 460 519
99 21 392 12 490 -14z"/>
<path d="M61075 5900 c-147 -20 -317 -87 -439 -174 -68 -49 -172 -154 -201
-203 -38 -66 -45 -46 -45 137 l0 170 -220 0 -220 0 0 -1225 0 -1225 230 0 230
0 0 730 c0 627 2 742 16 808 54 266 255 498 480 556 78 20 245 21 336 1 161
-34 282 -123 348 -259 71 -143 70 -125 70 -1028 l0 -808 231 0 230 0 -4 868
c-3 760 -6 876 -20 942 -60 272 -177 455 -367 578 -163 106 -435 160 -655 132z"/>
<path d="M63530 5899 c-237 -27 -460 -139 -645 -324 -267 -267 -398 -620 -382
-1030 9 -221 53 -404 139 -575 260 -516 776 -766 1302 -630 87 22 240 91 311
140 64 44 176 150 210 200 49 71 55 59 55 -118 0 -195 -12 -298 -50 -416 -88
-273 -293 -448 -584 -497 -111 -19 -315 -7 -403 24 -183 63 -335 192 -413 349
l-43 87 -46 -19 c-159 -64 -367 -152 -373 -158 -10 -10 59 -154 104 -220 165
-244 427 -402 773 -468 122 -24 365 -23 500 1 254 44 447 140 623 309 179 172
283 389 327 681 13 85 15 290 15 1348 l0 1247 -215 0 -215 0 0 -170 c0 -189
-5 -202 -54 -131 -42 60 -144 153 -224 205 -139 91 -297 147 -465 165 -107 12
-139 12 -247 0z m394 -429 c127 -32 228 -91 332 -195 102 -101 158 -187 205
-315 88 -243 73 -581 -36 -801 -111 -222 -300 -377 -519 -424 -108 -24 -303
-16 -396 15 -139 47 -258 130 -356 248 -65 78 -145 238 -169 335 -38 157 -41
345 -10 497 67 318 295 571 577 641 103 25 272 25 372 -1z"/>
<path d="M37525 5885 c-228 -42 -482 -216 -568 -391 -51 -105 -57 -92 -57 136
l0 200 -215 0 -215 0 0 -1225 0 -1225 225 0 224 0 3 743 3 742 26 77 c43 126
93 204 193 303 152 151 259 191 491 183 77 -3 153 -10 169 -17 16 -6 30 -10
32 -8 10 10 134 421 130 432 -6 17 -105 43 -211 55 -111 12 -141 12 -230 -5z"/>
<path d="M30310 4605 l0 -1225 230 0 230 0 0 1225 0 1225 -230 0 -230 0 0
-1225z"/>
<path d="M31129 5783 c11 -27 233 -577 494 -1223 l476 -1175 228 -2 228 -3
492 1208 c271 664 495 1215 499 1225 6 16 -8 17 -236 15 l-242 -3 -363 -945
c-199 -519 -367 -946 -372 -947 -5 -2 -171 424 -369 947 l-359 950 -247 0
-248 0 19 -47z"/>
<path d="M40480 4605 l0 -1225 225 0 225 0 0 1225 0 1225 -225 0 -225 0 0
-1225z"/>
<path d="M43050 5823 c0 -3 225 -518 500 -1143 275 -624 500 -1140 500 -1145
0 -4 -126 -281 -280 -615 -154 -334 -280 -610 -280 -613 0 -4 105 -6 232 -5
l233 3 766 1763 766 1762 -246 0 -247 0 -355 -880 c-195 -484 -358 -880 -364
-880 -5 1 -174 396 -374 880 l-364 880 -243 0 c-134 0 -244 -3 -244 -7z"/>
</g>
</svg>
