<?xml version="1.0" standalone="no"?>
<!DOCTYPE svg PUBLIC "-//W3C//DTD SVG 20010904//EN"
 "http://www.w3.org/TR/2001/REC-SVG-20010904/DTD/svg10.dtd">
<svg version="1.0" xmlns="http://www.w3.org/2000/svg"
 width="7680.000000pt" height="767.000000pt" viewBox="0 0 7680.000000 767.000000"
 preserveAspectRatio="xMidYMid meet">

<g transform="translate(0.000000,767.000000) scale(0.100000,-0.100000)"
fill="#000000" stroke="none">
<path d="M3243 7660 c-94 -14 -186 -48 -300 -112 -477 -268 -2570 -1485 -2567
-1493 2 -5 -16 -22 -39 -37 -148 -94 -260 -251 -308 -435 -28 -106 -28 -260 0
-366 40 -151 147 -317 262 -403 30 -22 662 -391 1404 -820 1019 -588 1371
-786 1435 -809 80 -28 94 -30 235 -30 138 0 156 2 230 28 243 85 417 269 487
514 28 100 31 275 5 373 -45 171 -169 346 -312 439 -39 25 -402 237 -808 471
-405 234 -737 427 -737 430 1 3 345 203 765 445 421 242 792 461 825 488 111
88 201 223 245 367 26 84 32 279 11 373 -20 90 -77 209 -138 292 -154 208
-435 323 -695 285z"/>
<path d="M5907 7659 c-504 -65 -796 -604 -577 -1064 38 -80 116 -181 183 -239
56 -47 2681 -1571 2805 -1628 34 -15 90 -35 125 -43 84 -20 263 -19 346 1 214
53 392 197 495 401 95 190 95 457 -1 646 -60 121 -149 223 -253 293 -25 17
-646 378 -1381 802 -959 554 -1357 778 -1410 796 -63 21 -220 49 -254 45 -5
-1 -41 -5 -78 -10z"/>
<path d="M13295 7209 c-236 -31 -505 -131 -700 -262 -188 -127 -389 -332 -508
-519 -309 -483 -343 -1176 -84 -1708 154 -317 445 -608 770 -772 452 -226
1074 -231 1536 -12 293 138 576 415 706 689 126 265 180 635 138 940 l-6 45
-798 0 -799 0 0 -195 0 -195 600 0 601 0 -7 -52 c-36 -283 -182 -558 -384
-720 -233 -189 -479 -270 -815 -270 -225 -1 -397 38 -580 129 -308 154 -538
423 -643 753 -41 129 -62 279 -62 448 0 372 117 674 359 925 182 189 387 306
638 362 111 26 380 31 503 11 245 -41 473 -151 633 -305 l68 -65 149 149 150
150 -53 53 c-121 124 -339 259 -527 327 -106 38 -251 73 -371 90 -114 16 -399
18 -514 4z"/>
<path d="M23430 5500 l0 -1650 205 0 205 0 0 1650 0 1650 -205 0 -205 0 0
-1650z"/>
<path d="M49995 7123 c-16 -2 -65 -13 -109 -24 -346 -85 -614 -329 -698 -638
-30 -107 -30 -323 0 -432 44 -162 126 -284 265 -393 166 -130 303 -197 636
-315 326 -116 458 -178 586 -276 161 -123 232 -291 206 -484 -35 -264 -219
-440 -519 -497 -309 -59 -601 58 -791 315 -55 74 -119 199 -146 281 -10 30
-19 56 -20 58 -3 3 -354 -137 -364 -145 -2 -1 6 -33 19 -70 215 -646 884 -970
1550 -752 341 111 582 362 643 669 33 164 30 331 -9 485 -27 106 -96 234 -169
313 -178 192 -399 317 -807 458 -338 116 -487 192 -599 303 -88 88 -112 149
-112 281 0 74 5 107 22 151 61 159 223 289 414 334 83 20 283 19 367 -1 92
-21 195 -75 267 -139 69 -62 156 -184 174 -245 7 -22 14 -40 16 -40 5 0 333
139 351 149 10 6 2 30 -32 97 -150 295 -420 491 -760 549 -82 14 -304 19 -381
8z"/>
<path d="M67100 7120 c-503 -70 -923 -326 -1191 -725 -148 -221 -237 -464
-275 -748 -23 -175 -14 -448 20 -613 141 -672 640 -1177 1302 -1314 159 -33
361 -46 519 -32 384 33 705 166 990 411 74 64 165 159 165 173 0 3 -63 64
-139 136 l-139 132 -74 -76 c-121 -126 -268 -233 -408 -298 -169 -77 -350
-116 -545 -116 -635 0 -1152 419 -1287 1043 -18 86 -22 135 -22 307 -1 221 9
301 61 464 144 459 540 801 1022 881 153 26 420 17 553 -18 194 -51 357 -147
516 -304 l94 -93 132 126 c72 70 132 132 134 139 5 20 -193 200 -291 266 -175
117 -368 198 -575 240 -111 23 -451 34 -562 19z"/>
<path d="M27830 5405 l0 -1657 593 5 c621 5 684 9 881 56 577 138 1000 560
1136 1134 50 211 65 517 35 739 -89 670 -513 1154 -1154 1318 -197 50 -240 53
-883 57 l-608 4 0 -1656z m1322 1256 c251 -55 430 -146 591 -300 173 -165 271
-348 329 -613 29 -135 36 -443 14 -596 -81 -550 -427 -907 -976 -1007 -76 -14
-174 -19 -497 -22 l-403 -5 0 1287 0 1287 423 -5 c385 -4 431 -6 519 -26z"/>
<path d="M38030 5405 l0 -1655 190 0 190 0 0 1655 0 1655 -190 0 -190 0 0
-1655z"/>
<path d="M57460 6543 c1 -285 5 -576 9 -648 5 -71 5 -134 1 -138 -4 -5 -26 15
-48 45 -125 169 -319 298 -529 350 -73 18 -116 22 -253 22 -146 0 -176 -4
-262 -27 -443 -118 -756 -488 -833 -982 -23 -146 -16 -428 13 -555 60 -254
170 -457 339 -621 163 -158 322 -242 548 -291 85 -18 332 -15 420 4 111 25
225 73 321 137 89 59 209 170 246 229 11 18 26 32 34 32 11 0 14 -32 14 -175
l0 -175 183 2 182 3 3 1653 2 1652 -195 0 -195 0 0 -517z m-547 -746 c277 -91
480 -335 548 -662 20 -93 17 -334 -5 -430 -63 -279 -224 -494 -450 -601 -146
-69 -298 -90 -446 -60 -298 61 -534 296 -617 615 -34 130 -42 328 -19 458 61
349 286 610 596 693 108 29 284 23 393 -13z"/>
<path d="M68990 5405 l0 -1655 190 0 190 0 0 1655 0 1655 -190 0 -190 0 0
-1655z"/>
<path d="M72370 5405 l0 -1655 185 0 185 0 0 175 c0 198 4 206 59 125 18 -28
61 -76 95 -108 300 -280 754 -341 1142 -152 427 207 673 660 651 1200 -15 362
-136 654 -367 880 -152 150 -321 242 -528 288 -106 23 -359 23 -456 -1 -215
-54 -435 -195 -537 -346 -48 -71 -62 -68 -55 12 3 34 9 326 12 650 l6 587
-196 0 -196 0 0 -1655z m1316 405 c280 -71 502 -299 585 -605 31 -112 34 -423
5 -530 -44 -162 -116 -295 -220 -403 -107 -112 -198 -170 -336 -214 -108 -33
-292 -33 -400 0 -360 113 -580 443 -580 872 0 370 165 671 451 820 150 78 335
100 495 60z"/>
<path d="M51820 6440 l0 -330 -205 0 -205 0 0 -175 0 -175 204 0 205 0 4 -777
c4 -859 2 -830 69 -970 41 -86 157 -205 243 -250 113 -59 201 -78 365 -77 125
1 155 4 220 25 l75 25 3 188 c2 149 0 187 -10 183 -153 -67 -250 -82 -349 -54
-105 31 -165 87 -205 192 -17 47 -19 93 -22 783 l-3 732 286 0 285 0 0 175 0
175 -285 0 -285 0 0 330 0 330 -195 0 -195 0 0 -330z"/>
<path d="M63460 6440 l0 -330 -205 0 -205 0 0 -175 0 -175 204 0 205 0 4 -777
c4 -860 2 -833 69 -972 42 -87 160 -207 245 -250 117 -59 200 -76 363 -75 125
1 155 4 220 25 l75 25 3 188 c2 149 0 187 -10 183 -138 -61 -141 -62 -248 -62
-95 0 -110 3 -156 27 -99 52 -144 119 -164 241 -6 37 -10 338 -10 755 l0 692
285 0 285 0 0 175 0 175 -285 0 -285 0 0 330 0 330 -195 0 -195 0 0 -330z"/>
<path d="M16425 6164 c-251 -39 -467 -152 -641 -336 -216 -228 -316 -502 -316
-858 1 -278 61 -491 196 -694 234 -352 630 -535 1072 -496 284 25 512 130 706
324 236 235 342 508 341 881 0 179 -21 303 -73 446 -119 326 -378 582 -695
688 -173 57 -399 75 -590 45z m390 -390 c126 -33 268 -126 362 -236 136 -157
205 -390 189 -631 -17 -243 -117 -452 -283 -589 -131 -109 -274 -158 -457
-158 -136 0 -214 18 -326 72 -118 58 -256 195 -319 316 -134 260 -130 619 10
872 82 148 254 291 414 345 112 37 289 41 410 9z"/>
<path d="M19035 6169 c-184 -23 -408 -118 -552 -233 -297 -240 -450 -603 -430
-1026 16 -345 129 -605 359 -826 191 -184 409 -279 692 -304 418 -37 791 126
1037 453 219 290 289 730 179 1127 -28 99 -117 279 -180 362 -76 100 -235 246
-326 299 -227 132 -495 183 -779 148z m305 -383 c103 -19 178 -49 264 -107
179 -119 300 -310 335 -529 16 -97 13 -289 -5 -378 -56 -275 -246 -500 -487
-578 -109 -36 -289 -44 -400 -20 -258 58 -458 253 -543 531 -25 83 -28 104
-28 265 -1 199 10 260 74 395 146 314 459 481 790 421z"/>
<path d="M21555 6169 c-252 -36 -499 -190 -670 -417 -170 -226 -247 -469 -246
-781 0 -172 18 -283 67 -431 167 -499 617 -810 1102 -760 241 25 427 114 585
280 43 44 77 84 77 90 0 5 7 10 16 10 15 0 16 -21 11 -202 -5 -235 -20 -307
-89 -441 -31 -61 -63 -103 -122 -162 -134 -133 -257 -183 -477 -192 -154 -7
-243 10 -357 67 -135 68 -234 167 -295 292 -17 37 -35 68 -39 68 -12 0 -372
-150 -381 -159 -12 -12 44 -130 104 -216 191 -277 531 -435 934 -435 339 0
606 101 816 309 124 124 202 257 253 434 56 192 56 196 56 1441 l0 1146 -200
0 -200 0 0 -160 c0 -88 -4 -160 -9 -160 -5 0 -34 31 -64 69 -188 232 -542 358
-872 310z m405 -394 c190 -51 354 -194 450 -390 63 -131 80 -202 87 -365 6
-160 -11 -283 -57 -397 -84 -209 -254 -375 -445 -436 -59 -18 -93 -22 -215
-22 -126 0 -155 3 -219 24 -166 55 -331 201 -417 372 -70 141 -104 344 -85
517 15 133 34 202 86 307 112 228 300 370 540 409 52 8 218 -3 275 -19z"/>
<path d="M25138 6165 c-274 -45 -507 -189 -683 -423 -151 -202 -221 -416 -232
-707 -14 -394 89 -683 332 -930 153 -156 298 -242 492 -291 290 -73 592 -43
848 85 203 102 362 248 469 434 l28 47 -187 91 c-103 49 -188 89 -189 87 -2
-2 -20 -30 -41 -63 -22 -33 -75 -96 -120 -141 -90 -90 -195 -150 -315 -180
-99 -25 -301 -15 -398 19 -181 63 -343 206 -422 372 -36 76 -70 212 -70 282
l0 53 888 2 887 3 -2 121 c-10 607 -333 1035 -858 1134 -98 18 -329 21 -427 5z
m387 -390 c212 -54 388 -222 440 -421 8 -32 15 -69 15 -81 l0 -23 -651 0 -651
0 7 33 c11 52 68 178 109 240 84 127 246 234 396 262 89 17 247 12 335 -10z"/>
<path d="M31658 6165 c-273 -45 -527 -201 -695 -429 -241 -326 -316 -827 -187
-1237 175 -553 671 -874 1255 -810 316 34 578 175 767 414 48 60 122 175 122
189 0 7 -306 158 -320 158 -3 0 -26 -30 -50 -66 -51 -77 -145 -176 -210 -221
-243 -166 -588 -175 -846 -22 -80 47 -196 159 -251 243 -75 112 -143 325 -143
447 l0 29 929 0 c733 0 931 3 938 13 13 21 5 258 -12 362 -72 423 -328 752
-681 876 -173 60 -437 84 -616 54z m427 -365 c266 -84 438 -293 478 -582 l6
-38 -725 0 c-398 0 -724 2 -724 4 0 3 12 42 26 88 94 299 292 490 565 548 78
16 295 5 374 -20z"/>
<path d="M36355 6170 c-475 -74 -823 -428 -937 -953 -32 -147 -31 -436 0 -584
95 -441 375 -767 767 -892 137 -44 223 -56 395 -55 337 2 589 102 811 324 70
70 209 256 209 279 0 7 -305 161 -319 161 -4 0 -25 -26 -46 -57 -87 -132 -232
-255 -363 -308 -138 -56 -349 -69 -497 -29 -89 23 -212 86 -291 148 -167 130
-281 352 -301 584 l-6 72 930 0 c840 0 931 2 937 16 13 35 5 256 -14 366 -83
480 -387 816 -825 910 -104 22 -357 32 -450 18z m390 -364 c33 -9 94 -33 135
-53 95 -48 231 -179 277 -268 37 -70 83 -222 83 -271 l0 -34 -721 0 c-681 0
-720 1 -715 18 3 9 10 37 16 62 70 270 297 501 545 555 88 19 294 14 380 -9z"/>
<path d="M39775 6165 c-274 -43 -488 -155 -676 -352 -159 -167 -255 -357 -311
-616 -31 -145 -31 -389 0 -534 61 -281 176 -493 364 -668 279 -260 668 -365
1067 -290 367 70 691 330 843 677 217 497 116 1092 -246 1454 -140 141 -308
241 -496 296 -159 46 -380 60 -545 33z m400 -360 c93 -25 216 -89 297 -153
136 -108 243 -281 290 -468 32 -128 32 -380 0 -507 -80 -319 -294 -540 -607
-625 -85 -23 -298 -22 -385 2 -312 86 -534 325 -606 652 -26 118 -24 351 4
464 42 171 105 291 215 406 117 124 262 205 427 240 83 17 283 11 365 -11z"/>
<path d="M42519 6165 c-247 -47 -501 -209 -606 -385 -9 -16 -21 -30 -25 -30
-4 0 -8 81 -8 180 l0 180 -185 0 -185 0 0 -1675 0 -1675 190 0 190 0 -1 568
c-1 312 -4 613 -8 670 -4 70 -3 102 5 102 6 0 26 -21 44 -46 119 -166 328
-298 555 -350 105 -25 337 -25 443 -1 438 100 759 437 864 907 20 92 23 131
23 320 0 168 -4 233 -18 297 -101 470 -407 812 -822 919 -127 32 -339 41 -456
19z m298 -355 c218 -52 413 -210 518 -420 148 -294 136 -689 -29 -971 -96
-162 -262 -299 -431 -355 -82 -26 -102 -29 -225 -29 -121 1 -143 4 -215 29
-379 130 -595 510 -555 974 46 528 477 882 937 772z"/>
<path d="M45035 6169 c-242 -35 -490 -172 -653 -361 -300 -346 -393 -894 -231
-1355 139 -396 454 -672 853 -748 247 -47 539 -18 742 75 174 79 361 241 472
410 34 51 62 96 62 99 0 7 -305 161 -319 161 -4 0 -25 -26 -46 -57 -53 -80
-166 -195 -240 -243 -132 -86 -296 -127 -465 -116 -118 7 -192 26 -296 76
-256 123 -423 372 -450 675 l-7 75 931 0 932 0 6 26 c12 49 -4 325 -25 414
-81 355 -276 621 -559 764 -184 93 -481 137 -707 105z m390 -363 c264 -71 449
-284 493 -568 l9 -58 -724 0 -724 0 6 23 c26 91 51 159 77 211 105 209 282
356 483 400 88 20 293 15 380 -8z"/>
<path d="M47640 6166 c-212 -45 -427 -201 -510 -370 -18 -36 -37 -66 -41 -66
-5 0 -9 86 -9 190 l0 190 -185 0 -185 0 0 -1175 0 -1175 190 0 189 0 4 718 c4
786 2 765 66 906 66 145 193 285 315 345 153 75 353 79 528 10 27 -10 51 -19
54 -19 2 0 3 93 2 207 l-3 208 -65 18 c-86 24 -264 31 -350 13z"/>
<path d="M59138 6165 c-219 -35 -400 -128 -571 -294 -242 -236 -370 -563 -370
-946 0 -235 41 -421 134 -611 214 -439 670 -680 1180 -625 268 29 472 121 662
300 108 102 242 291 220 311 -4 5 -77 41 -161 81 -138 65 -155 71 -164 56 -32
-59 -141 -187 -196 -232 -213 -177 -503 -222 -772 -121 -287 107 -480 372
-515 709 l-7 67 931 0 c733 0 932 3 938 13 13 20 6 256 -11 362 -19 113 -70
273 -117 367 -110 219 -311 406 -529 495 -187 75 -437 101 -652 68z m410 -359
c170 -47 320 -161 407 -310 30 -51 81 -205 89 -268 l6 -48 -725 0 -724 0 20
71 c82 297 284 502 554 565 75 17 297 12 373 -10z"/>
<path d="M61800 6161 c-217 -47 -435 -186 -546 -347 -21 -30 -41 -54 -46 -54
-4 0 -8 79 -8 175 l0 175 -185 0 -185 0 0 -1180 0 -1180 193 2 192 3 5 745 5
745 24 70 c65 194 165 330 312 425 87 56 167 80 284 87 253 14 460 -88 550
-271 69 -139 68 -123 72 -1008 l4 -798 190 0 189 0 0 818 c0 872 -2 914 -51
1062 -91 277 -277 453 -550 520 -124 31 -337 36 -449 11z"/>
<path d="M75665 6169 c-162 -23 -350 -98 -463 -184 -244 -184 -318 -485 -186
-755 67 -137 235 -272 421 -340 47 -17 196 -59 332 -95 359 -93 461 -135 550
-230 103 -109 108 -268 10 -379 -81 -92 -231 -150 -419 -162 -276 -19 -532
125 -661 371 -18 33 -33 62 -35 64 -4 4 -324 -137 -337 -149 -11 -10 54 -139
108 -215 53 -75 180 -197 260 -250 187 -124 474 -184 742 -157 488 49 803 328
803 712 0 283 -177 497 -517 625 -37 15 -187 57 -333 95 -295 76 -319 84 -408
129 -121 61 -176 134 -188 247 -8 76 21 149 78 199 55 47 161 100 238 120 84
22 261 22 355 0 143 -33 265 -117 342 -234 l38 -58 160 73 c88 40 164 75 169
77 6 2 -5 30 -23 63 -132 233 -367 382 -681 430 -103 15 -260 17 -355 3z"/>
<path d="M33044 6101 c3 -5 215 -528 472 -1162 256 -634 470 -1161 475 -1171
9 -16 26 -18 200 -18 l189 0 16 33 c8 17 225 547 482 1177 l467 1145 -199 3
c-109 1 -201 1 -203 -2 -2 -2 -169 -428 -372 -946 -202 -518 -371 -942 -376
-943 -5 -1 -174 424 -374 946 l-365 947 -209 0 c-120 0 -206 -4 -203 -9z"/>
<path d="M53150 5368 c0 -409 5 -797 10 -863 32 -388 207 -657 497 -762 157
-57 357 -76 509 -49 241 42 470 178 585 348 22 32 44 58 49 58 6 0 10 -70 10
-175 l0 -175 185 0 185 0 0 1180 0 1180 -195 0 -194 0 -3 -737 c-4 -830 0
-780 -82 -948 -147 -297 -434 -445 -741 -380 -206 44 -345 182 -401 400 -16
64 -18 140 -21 868 l-4 797 -194 0 -195 0 0 -742z"/>
<path d="M69850 5335 c0 -795 4 -899 40 -1041 44 -169 102 -276 215 -389 127
-128 267 -190 487 -216 199 -23 365 6 543 96 135 68 239 152 302 245 27 38 53
68 58 66 6 -2 11 -71 13 -174 l2 -172 180 0 180 0 0 1180 0 1180 -190 0 -190
0 0 -691 c0 -457 -4 -714 -11 -762 -43 -279 -239 -522 -484 -600 -95 -30 -292
-32 -375 -3 -94 32 -167 76 -223 135 -62 65 -97 127 -129 233 -22 73 -22 77
-26 881 l-3 807 -194 0 -195 0 0 -775z"/>
<path d="M19579 2225 c-48 -26 -66 -113 -35 -172 25 -50 116 -69 175 -38 73
37 69 180 -6 214 -33 15 -103 13 -134 -4z"/>
<path d="M24619 2212 c-27 -24 -33 -37 -37 -84 -4 -50 -2 -58 25 -88 25 -28
38 -34 84 -37 71 -5 113 19 130 77 27 90 -27 160 -123 160 -38 0 -54 -6 -79
-28z"/>
<path d="M11860 1370 l0 -850 105 0 105 0 0 375 0 375 360 0 360 0 0 90 0 90
-360 0 -360 0 0 295 0 295 420 0 420 0 0 90 0 90 -525 0 -525 0 0 -850z"/>
<path d="M13180 1370 l0 -850 110 0 110 0 2 332 3 333 290 6 c319 6 356 12
468 72 119 63 200 172 228 306 17 84 7 253 -21 324 -49 129 -173 245 -304 286
-109 34 -207 41 -552 41 l-334 0 0 -850z m811 634 c130 -62 189 -157 189 -308
0 -104 -19 -162 -76 -225 -83 -92 -181 -114 -499 -109 l-200 3 -3 338 -2 338
262 -3 263 -3 66 -31z"/>
<path d="M14560 2130 l0 -90 270 0 270 0 0 -760 0 -760 110 0 110 0 0 760 0
760 275 0 275 0 0 90 0 90 -655 0 -655 0 0 -90z"/>
<path d="M16643 1583 c3 -554 5 -645 20 -692 28 -94 69 -164 132 -227 111
-112 257 -165 456 -165 300 -1 499 123 591 367 23 59 23 64 26 707 l3 647
-110 0 -110 0 -3 -637 -3 -638 -23 -58 c-29 -70 -99 -144 -166 -175 -69 -33
-196 -48 -280 -34 -165 27 -270 122 -306 274 -6 26 -10 288 -10 656 l0 612
-111 0 -110 0 4 -637z"/>
<path d="M27710 1369 l0 -851 313 5 c351 4 378 8 527 80 120 57 239 176 298
297 72 147 87 230 86 475 -1 244 -13 306 -89 461 -104 210 -290 339 -538 373
-43 6 -195 11 -338 11 l-259 0 0 -851z m611 657 c205 -44 340 -193 385 -424
19 -102 19 -378 -1 -474 -44 -210 -182 -364 -370 -413 -42 -11 -109 -15 -232
-15 l-173 0 0 670 0 670 163 0 c100 0 187 -6 228 -14z"/>
<path d="M30590 1370 l0 -850 110 0 110 0 2 658 3 657 430 -657 430 -658 112
0 113 0 0 850 0 850 -110 0 -110 0 -2 -661 -3 -662 -430 661 -430 661 -112 1
-113 0 0 -850z"/>
<path d="M25240 1935 l0 -155 -115 0 -115 0 0 -80 0 -80 115 0 114 0 3 -457
c3 -457 3 -458 27 -510 29 -66 95 -128 153 -144 48 -13 187 -14 233 -1 l30 8
3 86 3 85 -58 -9 c-71 -12 -127 4 -157 45 -20 28 -21 40 -24 463 l-3 434 121
0 120 0 0 80 0 80 -120 0 -120 0 0 155 0 155 -105 0 -105 0 0 -155z"/>
<path d="M18638 1781 c-69 -22 -140 -66 -187 -115 -19 -20 -39 -36 -43 -36 -4
0 -8 34 -8 75 l0 75 -100 0 -100 0 0 -630 0 -630 105 0 105 0 0 453 0 452 36
53 c72 107 206 164 339 142 77 -13 131 -50 164 -115 l26 -49 3 -468 3 -468
104 0 105 0 0 458 c0 495 -4 542 -54 640 -35 69 -98 127 -166 154 -79 31 -252
36 -332 9z"/>
<path d="M21626 1789 c-135 -32 -284 -155 -349 -289 -54 -110 -69 -177 -74
-335 -6 -171 9 -254 67 -371 30 -62 56 -96 109 -146 114 -108 225 -149 401
-149 169 0 292 46 395 146 84 82 84 85 16 139 -33 25 -61 46 -63 46 -2 0 -28
-22 -57 -50 -29 -27 -78 -62 -109 -77 -52 -26 -66 -28 -172 -28 -105 0 -119 2
-165 27 -60 32 -135 107 -164 165 -26 52 -51 146 -51 190 l0 33 432 0 431 0
-6 123 c-4 68 -15 156 -26 200 -53 205 -180 338 -359 376 -62 13 -200 13 -256
0z m267 -192 c91 -53 145 -149 162 -284 l7 -53 -321 0 -321 0 0 24 c0 37 35
140 64 190 33 56 106 120 159 140 28 11 68 15 123 13 66 -3 89 -8 127 -30z"/>
<path d="M22920 1783 c-56 -19 -129 -72 -155 -112 -11 -17 -23 -31 -27 -31 -5
0 -8 32 -8 70 l0 70 -100 0 -100 0 0 -630 0 -630 105 0 105 0 0 453 0 453 30
47 c55 88 160 132 293 125 l67 -3 0 96 c0 79 -3 98 -16 103 -30 11 -149 5
-194 -11z"/>
<path d="M23640 1784 c-85 -23 -140 -53 -202 -112 -94 -89 -128 -208 -94 -325
38 -130 161 -208 429 -272 193 -45 263 -84 292 -160 33 -84 0 -163 -87 -210
-46 -26 -66 -30 -155 -33 -121 -5 -179 11 -243 65 -44 38 -79 100 -80 141 0
21 -3 22 -106 22 l-107 0 6 -49 c14 -120 104 -235 230 -295 91 -43 167 -59
287 -58 161 0 296 46 380 131 110 111 130 284 47 408 -62 93 -173 148 -429
213 -134 33 -194 59 -232 99 -55 58 -40 174 29 227 69 52 205 70 297 38 84
-28 158 -112 158 -178 l0 -26 111 0 110 0 -6 48 c-23 158 -149 285 -326 327
-80 19 -237 18 -309 -1z"/>
<path d="M29587 1784 c-176 -42 -315 -171 -342 -316 l-7 -38 104 0 103 0 18
49 c34 96 130 151 265 151 97 0 143 -15 197 -62 55 -48 75 -105 75 -210 l0
-78 -152 0 c-233 0 -352 -26 -467 -100 -109 -70 -161 -174 -161 -318 0 -93 27
-166 87 -232 82 -92 183 -132 331 -132 132 0 258 49 332 127 30 32 40 32 40
-2 0 -16 5 -45 11 -65 l10 -38 116 0 c106 0 115 1 108 18 -35 84 -38 119 -44
542 l-6 425 -28 60 c-53 113 -150 189 -279 220 -78 18 -234 18 -311 -1z m413
-788 l0 -134 -32 -43 c-67 -87 -176 -139 -291 -139 -82 0 -130 17 -182 62 -53
47 -69 90 -63 174 3 52 9 70 35 101 67 84 161 112 381 112 l152 1 0 -134z"/>
<path d="M32600 1784 c-148 -39 -279 -141 -319 -248 -11 -31 -21 -68 -21 -81
0 -25 0 -25 105 -25 102 0 105 1 105 23 0 26 33 82 63 109 55 47 100 62 198
66 82 4 102 1 147 -18 96 -42 142 -126 142 -262 l0 -68 -154 0 c-190 0 -305
-18 -403 -65 -135 -63 -203 -151 -225 -289 -27 -173 62 -328 223 -393 178 -72
380 -38 522 87 l35 30 14 -62 13 -63 113 -3 c61 -1 112 -1 112 1 0 2 -9 39
-20 82 -18 71 -20 111 -20 445 0 221 -4 390 -11 425 -30 162 -148 279 -317
314 -73 15 -236 13 -302 -5z m420 -785 l0 -131 -32 -44 c-37 -52 -98 -95 -177
-125 -85 -32 -200 -25 -267 16 -126 79 -134 270 -15 348 82 53 140 64 339 66
l152 1 0 -131z"/>
<path d="M34036 1789 c-62 -15 -155 -70 -208 -121 l-48 -47 0 57 c0 104 2 102
-111 102 l-99 0 0 -630 0 -630 110 0 110 0 0 456 0 455 30 44 c67 97 162 147
279 148 123 1 202 -47 236 -142 13 -37 15 -115 15 -502 l0 -459 111 0 111 0
-4 473 c-4 402 -7 481 -21 530 -37 126 -94 199 -189 242 -55 25 -77 29 -173
31 -60 2 -127 -1 -149 -7z"/>
<path d="M35190 1778 c-87 -31 -161 -86 -216 -163 -95 -134 -129 -277 -121
-505 4 -106 11 -165 27 -220 64 -221 211 -366 395 -389 140 -17 276 18 372 96
l55 45 -4 -108 c-4 -124 -28 -191 -89 -253 -83 -83 -233 -113 -367 -72 -70 21
-175 88 -205 130 -14 21 -15 21 -70 -41 l-55 -63 20 -28 c51 -71 176 -140 312
-172 114 -27 327 -11 374 27 6 6 12 8 12 4 0 -3 22 8 48 24 65 40 144 124 177
190 53 105 55 129 55 843 l0 657 -94 0 -94 0 -7 -70 -7 -70 -59 54 c-81 75
-143 98 -284 103 -95 3 -119 1 -175 -19z m339 -179 c60 -26 106 -62 142 -112
l29 -40 0 -294 c0 -292 0 -294 -24 -331 -31 -50 -90 -100 -145 -125 -66 -30
-198 -29 -262 0 -136 61 -209 218 -209 448 0 319 143 501 375 478 28 -3 70
-14 94 -24z"/>
<path d="M19540 1150 l0 -630 105 0 105 0 0 630 0 630 -105 0 -105 0 0 -630z"/>
<path d="M19994 1758 c3 -13 104 -295 225 -628 l219 -605 83 0 83 0 222 620
c123 341 223 624 224 628 0 4 -48 6 -106 5 l-107 -3 -155 -483 c-86 -265 -159
-479 -163 -475 -4 5 -77 223 -163 486 l-157 477 -105 0 c-105 0 -106 0 -100
-22z"/>
<path d="M24600 1150 l0 -630 105 0 105 0 0 630 0 630 -105 0 -105 0 0 -630z"/>
<path d="M25815 1763 c3 -10 105 -291 226 -626 l219 -607 -41 -109 c-64 -173
-119 -220 -261 -229 l-78 -5 0 -83 0 -83 56 -7 c88 -11 166 0 224 32 66 36
137 113 174 190 16 32 143 385 282 784 139 399 256 733 259 743 7 16 -2 17
-107 17 l-113 0 -144 -464 c-79 -256 -147 -469 -150 -475 -4 -5 -78 204 -165
465 l-158 474 -115 0 c-106 0 -115 -1 -108 -17z"/>
</g>
</svg>
