<svg xmlns="http://www.w3.org/2000/svg" width="1201" height="631" viewBox="0 0 1201 631" version="1.1"><path d="M 76.626 49.926 C 70.156 53.705, 69.399 54.571, 70.938 56.426 C 72.884 58.770, 81.223 63.128, 82.688 62.566 C 84.887 61.722, 84.152 58.390, 81.500 57.182 C 80.125 56.555, 79 55.655, 79 55.182 C 79 54.708, 80.125 53.808, 81.500 53.182 C 84.174 51.964, 84.894 48.557, 82.660 47.700 C 81.923 47.417, 79.207 48.419, 76.626 49.926 M 88.933 48.581 C 87.749 50.007, 87.866 50.473, 89.796 52.036 C 91.023 53.029, 92.583 54.077, 93.263 54.363 C 94.183 54.750, 94.115 55.138, 93 55.873 C 88.672 58.728, 87.924 59.638, 88.553 61.276 C 89.462 63.645, 90.681 63.451, 96.750 59.970 C 103.555 56.068, 103.557 54.182, 96.760 50.409 C 93.878 48.809, 91.246 47.373, 90.910 47.217 C 90.575 47.061, 89.685 47.675, 88.933 48.581 M 112.655 50.829 C 110.293 53.439, 110.566 57.582, 113.223 59.443 C 116.148 61.493, 118.319 61.410, 120.345 59.171 C 122.847 56.407, 122.454 54, 119.500 54 C 118.125 54, 117 54.450, 117 55 C 117 55.550, 117.955 56, 119.122 56 C 120.896 56, 121.040 56.247, 120 57.500 C 118.193 59.677, 114.263 59.360, 112.964 56.933 C 112.100 55.319, 112.217 54.318, 113.495 52.368 C 114.863 50.279, 115.652 49.972, 118.316 50.496 C 120.693 50.963, 121.120 50.856, 120 50.076 C 117.700 48.473, 114.489 48.802, 112.655 50.829 M 150.667 49.667 C 149.612 50.721, 149.892 59.815, 151 60.500 C 151.625 60.886, 152 58.844, 152 55.059 C 152 48.947, 151.878 48.455, 150.667 49.667 M 166 55 C 166 60.733, 166.111 61, 168.500 61 C 169.875 61, 171.890 60.110, 172.977 59.023 C 174.947 57.053, 174.958 57.053, 176.012 59.023 C 177.105 61.065, 181.414 61.757, 182.464 60.059 C 182.784 59.541, 181.847 59.203, 180.382 59.309 C 178.917 59.414, 177.519 58.938, 177.276 58.250 C 176.984 57.425, 177.881 57, 179.917 57 C 183.491 57, 184.135 54.678, 181.023 53.012 C 179.461 52.177, 178.639 52.361, 177.110 53.890 C 175.195 55.805, 175.167 55.800, 174.559 53.378 C 174.218 52.020, 172.814 50.500, 171.407 49.965 C 166.485 48.093, 166 48.546, 166 55 M 239.709 49.624 C 238.177 51.156, 239.126 54.100, 241.500 55.182 C 244.113 56.372, 244.770 58.406, 242.913 59.554 C 242.315 59.923, 241.325 59.725, 240.713 59.113 C 239.041 57.441, 237.567 57.774, 239 59.500 C 240.638 61.473, 244.624 61.422, 245.393 59.418 C 246.418 56.746, 246.107 56.107, 243 54.500 C 239.320 52.597, 239.034 50.582, 242.540 51.252 C 244.142 51.559, 244.944 51.325, 244.711 50.619 C 244.279 49.304, 240.734 48.599, 239.709 49.624 M 267 51.067 C 267 52.660, 266.553 52.993, 265.056 52.518 C 263.672 52.078, 262.642 52.616, 261.485 54.383 C 259.178 57.903, 260.956 61.111, 265.042 60.800 C 267.953 60.578, 268 60.482, 268 54.787 C 268 51.604, 267.775 49, 267.500 49 C 267.225 49, 267 49.930, 267 51.067 M 297.223 50.557 C 294.444 52.503, 294.284 57.043, 296.912 59.420 C 299.089 61.391, 304.109 61.221, 304.789 59.153 C 305.142 58.079, 304.803 58.035, 303.116 58.938 C 299.099 61.088, 294.939 56.852, 297.100 52.812 C 297.981 51.168, 298.857 50.877, 301.597 51.322 C 305.057 51.884, 306.300 50.713, 303.418 49.607 C 300.966 48.666, 299.629 48.871, 297.223 50.557 M 318.136 54.532 C 318.004 60.371, 318.084 60.571, 320.646 60.783 C 323.992 61.060, 326 59.421, 326 56.413 C 326 53.835, 322.995 51.681, 320.652 52.580 C 319.647 52.966, 319.014 52.393, 318.716 50.826 C 318.472 49.547, 318.211 51.214, 318.136 54.532 M 200 54.941 C 200 57.659, 200.450 60.160, 201 60.500 C 201.621 60.884, 202 59.010, 202 55.559 C 202 52.502, 201.550 50, 201 50 C 200.450 50, 200 52.223, 200 54.941 M 247.238 51.990 C 246.496 53.178, 246.395 54, 246.992 54 C 247.546 54, 248 55.575, 248 57.500 C 248 60.127, 248.424 61, 249.700 61 C 251.022 61, 251.133 60.733, 250.200 59.800 C 248.619 58.219, 248.655 54.004, 250.250 53.985 C 251.115 53.974, 251.161 53.743, 250.400 53.235 C 249.795 52.831, 249.118 51.933, 248.897 51.240 C 248.630 50.406, 248.069 50.660, 247.238 51.990 M 287.303 51.503 C 286.735 52.601, 286.395 53.950, 286.548 54.500 C 286.700 55.050, 287.098 56.737, 287.432 58.250 C 287.819 60.007, 288.663 60.971, 289.769 60.921 C 290.813 60.873, 291.004 60.642, 290.250 60.338 C 289.563 60.060, 289 58.521, 289 56.917 C 289 55.258, 289.539 53.993, 290.250 53.985 C 291.115 53.974, 291.161 53.743, 290.400 53.235 C 289.795 52.831, 289.083 51.826, 288.817 51.003 C 288.433 49.808, 288.127 49.909, 287.303 51.503 M 306 55.500 C 306 58.525, 306.450 61, 307 61 C 307.550 61, 308 58.525, 308 55.500 C 308 52.475, 307.550 50, 307 50 C 306.450 50, 306 52.475, 306 55.500 M 167 55.066 C 167 58.913, 167.149 59.116, 169.750 58.816 C 171.948 58.564, 172.566 57.919, 172.830 55.609 C 173.174 52.598, 171.792 51.042, 168.750 51.015 C 167.368 51.003, 167 51.854, 167 55.066 M 124.966 53.827 C 123.365 55.123, 122.935 56.220, 123.424 57.761 C 124.883 62.357, 131 61.268, 131 56.413 C 131 52.961, 127.753 51.570, 124.966 53.827 M 135 52.785 C 131.308 54.052, 130.983 58.579, 134.470 60.168 C 136.359 61.029, 137.301 60.995, 138.470 60.025 C 141.858 57.213, 139.066 51.389, 135 52.785 M 142.595 53.207 C 139.117 55.153, 141.879 62.028, 145.571 60.611 C 146.594 60.218, 147.008 60.447, 146.723 61.249 C 146.479 61.937, 145.317 62.393, 144.140 62.262 C 142.963 62.131, 142 62.468, 142 63.012 C 142 64.404, 146.355 64.245, 147.800 62.800 C 148.460 62.140, 149 59.717, 149 57.417 C 149 53.793, 148.678 53.172, 146.595 52.773 C 145.273 52.521, 143.473 52.716, 142.595 53.207 M 154.571 53.571 C 152.563 55.580, 152.579 57.436, 154.621 59.479 C 156.377 61.234, 159.107 61.181, 159.707 59.381 C 159.942 58.674, 159.144 58.441, 157.540 58.748 C 156.047 59.033, 155 58.773, 155 58.117 C 155 57.502, 156.350 57, 158 57 C 159.650 57, 161 56.582, 161 56.071 C 161 54.905, 158.146 52, 157 52 C 156.529 52, 155.436 52.707, 154.571 53.571 M 194.239 52.722 C 191.999 53.525, 190.827 56.809, 192 59 C 193.104 61.063, 197.408 61.768, 198.464 60.059 C 198.784 59.541, 197.847 59.203, 196.382 59.309 C 194.917 59.414, 193.519 58.938, 193.276 58.250 C 192.984 57.425, 193.881 57, 195.917 57 C 197.958 57, 199 56.505, 199 55.535 C 199 53.815, 196.051 52.073, 194.239 52.722 M 204.571 53.571 C 201.174 56.969, 203.844 61.758, 208.487 60.593 C 210.460 60.098, 211 59.328, 211 57.016 C 211 55.127, 210.306 53.699, 209.066 53.035 C 206.564 51.696, 206.431 51.712, 204.571 53.571 M 214.250 52.766 C 212.239 53.100, 212 53.715, 212 58.570 C 212 61.556, 212.450 64, 213 64 C 213.550 64, 214 63.355, 214 62.566 C 214 61.746, 215.176 60.998, 216.750 60.816 C 219.028 60.554, 219.553 59.953, 219.808 57.316 C 220.152 53.769, 218.140 52.122, 214.250 52.766 M 222.571 53.571 C 220.700 55.443, 220.539 58.139, 222.200 59.800 C 223.681 61.281, 227.651 61.373, 228.532 59.948 C 228.941 59.287, 228.166 59.008, 226.446 59.198 C 224.914 59.367, 223.517 58.950, 223.272 58.250 C 222.983 57.426, 223.883 57, 225.917 57 C 229.469 57, 230.141 54.681, 227.066 53.035 C 224.564 51.696, 224.431 51.712, 222.571 53.571 M 231.750 52.749 C 230.443 53.046, 230 54.154, 230 57.132 C 230 59.535, 230.397 60.873, 231 60.500 C 231.550 60.160, 232 58.592, 232 57.014 C 232 55.082, 232.571 54.034, 233.750 53.800 C 234.713 53.609, 235.050 53.205, 234.500 52.902 C 233.950 52.600, 232.713 52.531, 231.750 52.749 M 270.452 54.433 C 269.212 56.325, 269.104 57.325, 269.964 58.933 C 271.101 61.057, 275.388 61.800, 276.464 60.059 C 276.784 59.541, 275.847 59.203, 274.382 59.309 C 272.917 59.414, 271.519 58.938, 271.276 58.250 C 270.984 57.425, 271.881 57, 273.917 57 C 277.469 57, 278.141 54.681, 275.066 53.035 C 272.421 51.620, 272.264 51.667, 270.452 54.433 M 280.250 52.706 C 278.372 53.067, 278 53.789, 278 57.070 C 278 61.796, 279.743 62.345, 280.187 57.758 C 280.393 55.623, 281.097 54.403, 282.250 54.185 C 283.652 53.919, 284 54.564, 284 57.427 C 284 59.392, 284.450 61, 285 61 C 286.595 61, 286.156 55.299, 284.429 53.571 C 283.564 52.707, 282.777 52.061, 282.679 52.136 C 282.580 52.211, 281.488 52.467, 280.250 52.706 M 328.250 52.662 C 326.151 53.509, 326.853 55.859, 329.643 57.321 C 331.408 58.246, 331.892 58.949, 331.099 59.439 C 330.446 59.842, 329.184 59.571, 328.294 58.836 C 326.922 57.704, 326.750 57.729, 327.171 59 C 327.874 61.126, 332.390 60.928, 332.809 58.753 C 333.027 57.621, 332.239 56.661, 330.573 56.028 C 327.274 54.774, 327.221 53.588, 330.500 54.411 C 333.223 55.094, 333.987 53.593, 331.418 52.607 C 330.548 52.273, 329.761 52.036, 329.668 52.079 C 329.576 52.122, 328.938 52.385, 328.250 52.662 M 184 54.050 C 184 55.326, 186.868 61, 187.512 61 C 188.264 61, 191.071 53.737, 190.528 53.195 C 190.255 52.921, 189.412 54.170, 188.655 55.969 L 187.280 59.241 186.192 56.120 C 185.122 53.050, 184 51.991, 184 54.050 M 252.190 56.750 C 252.477 60.226, 252.737 60.507, 255.750 60.600 C 258.928 60.698, 258.997 60.609, 258.850 56.600 C 258.725 53.186, 258.627 53.002, 258.260 55.497 C 257.483 60.784, 254 61.148, 254 55.941 C 254 54.323, 253.523 53, 252.940 53 C 252.326 53, 252.010 54.579, 252.190 56.750 M 309.015 55.750 C 309.037 59.653, 310.222 61.042, 313.312 60.786 C 315.773 60.583, 315.989 60.223, 315.868 56.532 L 315.737 52.500 315.118 56 C 314.309 60.581, 311.621 60.752, 311.187 56.250 C 310.806 52.307, 308.994 51.890, 309.015 55.750 M 125.701 54.632 C 125.316 55.018, 125 56.190, 125 57.236 C 125 58.638, 125.593 59.055, 127.250 58.820 C 128.721 58.611, 129.500 57.812, 129.500 56.514 C 129.500 54.530, 127.028 53.306, 125.701 54.632 M 134.667 54.667 C 134.300 55.033, 134 56.158, 134 57.167 C 134 59.260, 137.572 59.748, 138.269 57.750 C 139.228 55.001, 136.590 52.743, 134.667 54.667 M 142.773 55.201 C 141.989 57.330, 143.035 59, 145.153 59 C 146.638 59, 147.059 58.435, 146.820 56.760 C 146.466 54.284, 143.528 53.152, 142.773 55.201 M 204.570 55.678 C 204.206 56.627, 204.594 58.022, 205.463 58.892 C 206.846 60.274, 207.164 60.264, 208.637 58.792 C 209.537 57.892, 210.001 56.445, 209.668 55.578 C 208.866 53.488, 205.384 53.556, 204.570 55.678 M 214.701 54.632 C 213.699 55.635, 213.835 58.780, 214.910 59.444 C 216.666 60.530, 219.109 58.766, 218.803 56.633 C 218.500 54.520, 216.022 53.311, 214.701 54.632 M 262.701 54.632 C 261.699 55.635, 261.835 58.780, 262.910 59.444 C 264.666 60.530, 267.109 58.766, 266.803 56.633 C 266.500 54.520, 264.022 53.311, 262.701 54.632 M 319.676 55.403 C 319.380 56.174, 319.781 57.637, 320.569 58.653 C 321.961 60.449, 322.039 60.449, 323.431 58.653 C 325.173 56.406, 324.433 54, 322 54 C 321.018 54, 319.972 54.631, 319.676 55.403 M 1002.250 54.662 C 1000.766 55.261, 1000.561 58, 1002 58 C 1002.550 58, 1003 57.550, 1003 57 C 1003 56.450, 1003.450 56, 1004 56 C 1005.739 56, 1005.082 59.616, 1003 61.500 C 999.914 64.293, 1000.482 66, 1004.500 66 C 1006.786 66, 1008 65.528, 1008 64.639 C 1008 63.717, 1007.112 63.415, 1005.250 63.704 L 1002.500 64.131 1005.250 61.982 C 1010.209 58.107, 1007.868 52.395, 1002.250 54.662 M 1015.585 55.906 C 1013.306 58.425, 1013.842 63.839, 1016.546 65.623 C 1021.286 68.751, 1025.641 59.784, 1021.429 55.571 C 1019.350 53.493, 1017.682 53.589, 1015.585 55.906 M 1029.114 55.363 C 1028.164 56.507, 1028.170 56.987, 1029.142 57.588 C 1029.836 58.017, 1030.555 57.835, 1030.774 57.177 C 1031.397 55.308, 1033 55.812, 1033 57.878 C 1033 58.910, 1032.300 60.336, 1031.445 61.045 C 1030.590 61.755, 1029.450 63.160, 1028.910 64.168 C 1028.035 65.803, 1028.363 66, 1031.965 66 C 1034.702 66, 1036 65.562, 1036 64.639 C 1036 63.701, 1035.145 63.431, 1033.250 63.770 L 1030.500 64.263 1033.472 61.095 C 1035.853 58.557, 1036.230 57.587, 1035.370 56.214 C 1033.964 53.971, 1030.644 53.520, 1029.114 55.363 M 1042.372 55.473 C 1042.032 56.360, 1042.095 57.404, 1042.513 57.793 C 1042.932 58.182, 1043.475 57.938, 1043.720 57.250 C 1043.966 56.563, 1044.579 56, 1045.083 56 C 1046.464 56, 1046.185 58.764, 1044.750 59.302 C 1043.886 59.626, 1044.118 60.248, 1045.500 61.318 C 1047.100 62.556, 1047.251 63.118, 1046.254 64.129 C 1045.251 65.145, 1044.743 65.031, 1043.656 63.545 C 1042.721 62.265, 1042.087 62.051, 1041.594 62.849 C 1040.467 64.672, 1041.875 66, 1044.937 66 C 1048.968 66, 1050.794 63.535, 1048.577 61.085 C 1047.261 59.631, 1047.174 59.100, 1048.189 58.732 C 1049.187 58.371, 1049.237 57.809, 1048.398 56.379 C 1046.962 53.931, 1043.182 53.363, 1042.372 55.473 M 1017.193 60.172 C 1017.632 66.139, 1020 66.485, 1020 60.583 C 1020 57.101, 1019.626 56, 1018.443 56 C 1017.232 56, 1016.954 56.930, 1017.193 60.172 M 115 68.552 C 115 70.386, 115.393 70.786, 116.699 70.285 C 117.762 69.877, 117.950 69.483, 117.199 69.233 C 116.540 69.013, 116 68.421, 116 67.917 C 116 66.539, 118.758 66.814, 119.338 68.250 C 119.741 69.250, 119.858 69.250, 119.921 68.250 C 120.073 65.846, 121.870 67.025, 122.207 69.750 C 122.546 72.489, 122.550 72.487, 123.088 69.333 C 123.626 66.184, 123.606 66.167, 119.315 66.167 C 115.434 66.167, 115 66.407, 115 68.552 M 175.093 69 C 175.131 71.807, 175.303 72.104, 175.963 70.500 C 176.718 68.664, 176.844 68.644, 177.500 70.250 C 178.664 73.102, 180.010 72.247, 179.864 68.750 C 179.752 66.073, 179.647 65.932, 179.268 67.949 L 178.809 70.398 176.927 67.949 L 175.044 65.500 175.093 69 M 143 70.239 C 143 71.255, 143.740 71.994, 144.750 71.985 C 146.246 71.972, 146.282 71.828, 145 71 C 143.703 70.162, 143.725 70.029, 145.167 70.015 C 146.083 70.007, 147.017 70.551, 147.241 71.224 C 147.466 71.898, 147.897 71.502, 148.199 70.346 C 148.668 68.553, 148.326 68.261, 145.874 68.361 C 143.841 68.444, 143 68.994, 143 70.239" stroke="none" fill="#d9deda" fill-rule="evenodd"/><path d="M -0 315.501 L -0 631.002 600.750 630.751 L 1201.500 630.500 1201.752 315.250 L 1202.003 -0 601.002 -0 L 0 0 -0 315.501 M 0.494 316 C 0.494 489.525, 0.609 560.513, 0.750 473.750 C 0.891 386.988, 0.891 245.013, 0.750 158.250 C 0.609 71.488, 0.494 142.475, 0.494 316 M 76.626 49.926 C 70.156 53.705, 69.399 54.571, 70.938 56.426 C 72.884 58.770, 81.223 63.128, 82.688 62.566 C 84.887 61.722, 84.152 58.390, 81.500 57.182 C 80.125 56.555, 79 55.655, 79 55.182 C 79 54.708, 80.125 53.808, 81.500 53.182 C 84.174 51.964, 84.894 48.557, 82.660 47.700 C 81.923 47.417, 79.207 48.419, 76.626 49.926 M 88.933 48.581 C 87.749 50.007, 87.866 50.473, 89.796 52.036 C 91.023 53.029, 92.583 54.077, 93.263 54.363 C 94.183 54.750, 94.115 55.138, 93 55.873 C 88.672 58.728, 87.924 59.638, 88.553 61.276 C 89.462 63.645, 90.681 63.451, 96.750 59.970 C 103.555 56.068, 103.557 54.182, 96.760 50.409 C 93.878 48.809, 91.246 47.373, 90.910 47.217 C 90.575 47.061, 89.685 47.675, 88.933 48.581 M 112.655 50.829 C 110.293 53.439, 110.566 57.582, 113.223 59.443 C 116.148 61.493, 118.319 61.410, 120.345 59.171 C 122.847 56.407, 122.454 54, 119.500 54 C 118.125 54, 117 54.450, 117 55 C 117 55.550, 117.955 56, 119.122 56 C 120.896 56, 121.040 56.247, 120 57.500 C 118.193 59.677, 114.263 59.360, 112.964 56.933 C 112.100 55.319, 112.217 54.318, 113.495 52.368 C 114.863 50.279, 115.652 49.972, 118.316 50.496 C 120.693 50.963, 121.120 50.856, 120 50.076 C 117.700 48.473, 114.489 48.802, 112.655 50.829 M 150.667 49.667 C 149.612 50.721, 149.892 59.815, 151 60.500 C 151.625 60.886, 152 58.844, 152 55.059 C 152 48.947, 151.878 48.455, 150.667 49.667 M 166 55 C 166 60.733, 166.111 61, 168.500 61 C 169.875 61, 171.890 60.110, 172.977 59.023 C 174.947 57.053, 174.958 57.053, 176.012 59.023 C 177.105 61.065, 181.414 61.757, 182.464 60.059 C 182.784 59.541, 181.847 59.203, 180.382 59.309 C 178.917 59.414, 177.519 58.938, 177.276 58.250 C 176.984 57.425, 177.881 57, 179.917 57 C 183.491 57, 184.135 54.678, 181.023 53.012 C 179.461 52.177, 178.639 52.361, 177.110 53.890 C 175.195 55.805, 175.167 55.800, 174.559 53.378 C 174.218 52.020, 172.814 50.500, 171.407 49.965 C 166.485 48.093, 166 48.546, 166 55 M 239.709 49.624 C 238.177 51.156, 239.126 54.100, 241.500 55.182 C 244.113 56.372, 244.770 58.406, 242.913 59.554 C 242.315 59.923, 241.325 59.725, 240.713 59.113 C 239.041 57.441, 237.567 57.774, 239 59.500 C 240.638 61.473, 244.624 61.422, 245.393 59.418 C 246.418 56.746, 246.107 56.107, 243 54.500 C 239.320 52.597, 239.034 50.582, 242.540 51.252 C 244.142 51.559, 244.944 51.325, 244.711 50.619 C 244.279 49.304, 240.734 48.599, 239.709 49.624 M 267 51.067 C 267 52.660, 266.553 52.993, 265.056 52.518 C 263.672 52.078, 262.642 52.616, 261.485 54.383 C 259.178 57.903, 260.956 61.111, 265.042 60.800 C 267.953 60.578, 268 60.482, 268 54.787 C 268 51.604, 267.775 49, 267.500 49 C 267.225 49, 267 49.930, 267 51.067 M 297.223 50.557 C 294.444 52.503, 294.284 57.043, 296.912 59.420 C 299.089 61.391, 304.109 61.221, 304.789 59.153 C 305.142 58.079, 304.803 58.035, 303.116 58.938 C 299.099 61.088, 294.939 56.852, 297.100 52.812 C 297.981 51.168, 298.857 50.877, 301.597 51.322 C 305.057 51.884, 306.300 50.713, 303.418 49.607 C 300.966 48.666, 299.629 48.871, 297.223 50.557 M 318.136 54.532 C 318.004 60.371, 318.084 60.571, 320.646 60.783 C 323.992 61.060, 326 59.421, 326 56.413 C 326 53.835, 322.995 51.681, 320.652 52.580 C 319.647 52.966, 319.014 52.393, 318.716 50.826 C 318.472 49.547, 318.211 51.214, 318.136 54.532 M 200 54.941 C 200 57.659, 200.450 60.160, 201 60.500 C 201.621 60.884, 202 59.010, 202 55.559 C 202 52.502, 201.550 50, 201 50 C 200.450 50, 200 52.223, 200 54.941 M 247.238 51.990 C 246.496 53.178, 246.395 54, 246.992 54 C 247.546 54, 248 55.575, 248 57.500 C 248 60.127, 248.424 61, 249.700 61 C 251.022 61, 251.133 60.733, 250.200 59.800 C 248.619 58.219, 248.655 54.004, 250.250 53.985 C 251.115 53.974, 251.161 53.743, 250.400 53.235 C 249.795 52.831, 249.118 51.933, 248.897 51.240 C 248.630 50.406, 248.069 50.660, 247.238 51.990 M 287.303 51.503 C 286.735 52.601, 286.395 53.950, 286.548 54.500 C 286.700 55.050, 287.098 56.737, 287.432 58.250 C 287.819 60.007, 288.663 60.971, 289.769 60.921 C 290.813 60.873, 291.004 60.642, 290.250 60.338 C 289.563 60.060, 289 58.521, 289 56.917 C 289 55.258, 289.539 53.993, 290.250 53.985 C 291.115 53.974, 291.161 53.743, 290.400 53.235 C 289.795 52.831, 289.083 51.826, 288.817 51.003 C 288.433 49.808, 288.127 49.909, 287.303 51.503 M 306 55.500 C 306 58.525, 306.450 61, 307 61 C 307.550 61, 308 58.525, 308 55.500 C 308 52.475, 307.550 50, 307 50 C 306.450 50, 306 52.475, 306 55.500 M 167 55.066 C 167 58.913, 167.149 59.116, 169.750 58.816 C 171.948 58.564, 172.566 57.919, 172.830 55.609 C 173.174 52.598, 171.792 51.042, 168.750 51.015 C 167.368 51.003, 167 51.854, 167 55.066 M 124.966 53.827 C 123.365 55.123, 122.935 56.220, 123.424 57.761 C 124.883 62.357, 131 61.268, 131 56.413 C 131 52.961, 127.753 51.570, 124.966 53.827 M 135 52.785 C 131.308 54.052, 130.983 58.579, 134.470 60.168 C 136.359 61.029, 137.301 60.995, 138.470 60.025 C 141.858 57.213, 139.066 51.389, 135 52.785 M 142.595 53.207 C 139.117 55.153, 141.879 62.028, 145.571 60.611 C 146.594 60.218, 147.008 60.447, 146.723 61.249 C 146.479 61.937, 145.317 62.393, 144.140 62.262 C 142.963 62.131, 142 62.468, 142 63.012 C 142 64.404, 146.355 64.245, 147.800 62.800 C 148.460 62.140, 149 59.717, 149 57.417 C 149 53.793, 148.678 53.172, 146.595 52.773 C 145.273 52.521, 143.473 52.716, 142.595 53.207 M 154.571 53.571 C 152.563 55.580, 152.579 57.436, 154.621 59.479 C 156.377 61.234, 159.107 61.181, 159.707 59.381 C 159.942 58.674, 159.144 58.441, 157.540 58.748 C 156.047 59.033, 155 58.773, 155 58.117 C 155 57.502, 156.350 57, 158 57 C 159.650 57, 161 56.582, 161 56.071 C 161 54.905, 158.146 52, 157 52 C 156.529 52, 155.436 52.707, 154.571 53.571 M 194.239 52.722 C 191.999 53.525, 190.827 56.809, 192 59 C 193.104 61.063, 197.408 61.768, 198.464 60.059 C 198.784 59.541, 197.847 59.203, 196.382 59.309 C 194.917 59.414, 193.519 58.938, 193.276 58.250 C 192.984 57.425, 193.881 57, 195.917 57 C 197.958 57, 199 56.505, 199 55.535 C 199 53.815, 196.051 52.073, 194.239 52.722 M 204.571 53.571 C 201.174 56.969, 203.844 61.758, 208.487 60.593 C 210.460 60.098, 211 59.328, 211 57.016 C 211 55.127, 210.306 53.699, 209.066 53.035 C 206.564 51.696, 206.431 51.712, 204.571 53.571 M 214.250 52.766 C 212.239 53.100, 212 53.715, 212 58.570 C 212 61.556, 212.450 64, 213 64 C 213.550 64, 214 63.355, 214 62.566 C 214 61.746, 215.176 60.998, 216.750 60.816 C 219.028 60.554, 219.553 59.953, 219.808 57.316 C 220.152 53.769, 218.140 52.122, 214.250 52.766 M 222.571 53.571 C 220.700 55.443, 220.539 58.139, 222.200 59.800 C 223.681 61.281, 227.651 61.373, 228.532 59.948 C 228.941 59.287, 228.166 59.008, 226.446 59.198 C 224.914 59.367, 223.517 58.950, 223.272 58.250 C 222.983 57.426, 223.883 57, 225.917 57 C 229.469 57, 230.141 54.681, 227.066 53.035 C 224.564 51.696, 224.431 51.712, 222.571 53.571 M 231.750 52.749 C 230.443 53.046, 230 54.154, 230 57.132 C 230 59.535, 230.397 60.873, 231 60.500 C 231.550 60.160, 232 58.592, 232 57.014 C 232 55.082, 232.571 54.034, 233.750 53.800 C 234.713 53.609, 235.050 53.205, 234.500 52.902 C 233.950 52.600, 232.713 52.531, 231.750 52.749 M 270.452 54.433 C 269.212 56.325, 269.104 57.325, 269.964 58.933 C 271.101 61.057, 275.388 61.800, 276.464 60.059 C 276.784 59.541, 275.847 59.203, 274.382 59.309 C 272.917 59.414, 271.519 58.938, 271.276 58.250 C 270.984 57.425, 271.881 57, 273.917 57 C 277.469 57, 278.141 54.681, 275.066 53.035 C 272.421 51.620, 272.264 51.667, 270.452 54.433 M 280.250 52.706 C 278.372 53.067, 278 53.789, 278 57.070 C 278 61.796, 279.743 62.345, 280.187 57.758 C 280.393 55.623, 281.097 54.403, 282.250 54.185 C 283.652 53.919, 284 54.564, 284 57.427 C 284 59.392, 284.450 61, 285 61 C 286.595 61, 286.156 55.299, 284.429 53.571 C 283.564 52.707, 282.777 52.061, 282.679 52.136 C 282.580 52.211, 281.488 52.467, 280.250 52.706 M 328.250 52.662 C 326.151 53.509, 326.853 55.859, 329.643 57.321 C 331.408 58.246, 331.892 58.949, 331.099 59.439 C 330.446 59.842, 329.184 59.571, 328.294 58.836 C 326.922 57.704, 326.750 57.729, 327.171 59 C 327.874 61.126, 332.390 60.928, 332.809 58.753 C 333.027 57.621, 332.239 56.661, 330.573 56.028 C 327.274 54.774, 327.221 53.588, 330.500 54.411 C 333.223 55.094, 333.987 53.593, 331.418 52.607 C 330.548 52.273, 329.761 52.036, 329.668 52.079 C 329.576 52.122, 328.938 52.385, 328.250 52.662 M 184 54.050 C 184 55.326, 186.868 61, 187.512 61 C 188.264 61, 191.071 53.737, 190.528 53.195 C 190.255 52.921, 189.412 54.170, 188.655 55.969 L 187.280 59.241 186.192 56.120 C 185.122 53.050, 184 51.991, 184 54.050 M 252.190 56.750 C 252.477 60.226, 252.737 60.507, 255.750 60.600 C 258.928 60.698, 258.997 60.609, 258.850 56.600 C 258.725 53.186, 258.627 53.002, 258.260 55.497 C 257.483 60.784, 254 61.148, 254 55.941 C 254 54.323, 253.523 53, 252.940 53 C 252.326 53, 252.010 54.579, 252.190 56.750 M 309.015 55.750 C 309.037 59.653, 310.222 61.042, 313.312 60.786 C 315.773 60.583, 315.989 60.223, 315.868 56.532 L 315.737 52.500 315.118 56 C 314.309 60.581, 311.621 60.752, 311.187 56.250 C 310.806 52.307, 308.994 51.890, 309.015 55.750 M 125.701 54.632 C 125.316 55.018, 125 56.190, 125 57.236 C 125 58.638, 125.593 59.055, 127.250 58.820 C 128.721 58.611, 129.500 57.812, 129.500 56.514 C 129.500 54.530, 127.028 53.306, 125.701 54.632 M 134.667 54.667 C 134.300 55.033, 134 56.158, 134 57.167 C 134 59.260, 137.572 59.748, 138.269 57.750 C 139.228 55.001, 136.590 52.743, 134.667 54.667 M 142.773 55.201 C 141.989 57.330, 143.035 59, 145.153 59 C 146.638 59, 147.059 58.435, 146.820 56.760 C 146.466 54.284, 143.528 53.152, 142.773 55.201 M 204.570 55.678 C 204.206 56.627, 204.594 58.022, 205.463 58.892 C 206.846 60.274, 207.164 60.264, 208.637 58.792 C 209.537 57.892, 210.001 56.445, 209.668 55.578 C 208.866 53.488, 205.384 53.556, 204.570 55.678 M 214.701 54.632 C 213.699 55.635, 213.835 58.780, 214.910 59.444 C 216.666 60.530, 219.109 58.766, 218.803 56.633 C 218.500 54.520, 216.022 53.311, 214.701 54.632 M 262.701 54.632 C 261.699 55.635, 261.835 58.780, 262.910 59.444 C 264.666 60.530, 267.109 58.766, 266.803 56.633 C 266.500 54.520, 264.022 53.311, 262.701 54.632 M 319.676 55.403 C 319.380 56.174, 319.781 57.637, 320.569 58.653 C 321.961 60.449, 322.039 60.449, 323.431 58.653 C 325.173 56.406, 324.433 54, 322 54 C 321.018 54, 319.972 54.631, 319.676 55.403 M 1002.250 54.662 C 1000.766 55.261, 1000.561 58, 1002 58 C 1002.550 58, 1003 57.550, 1003 57 C 1003 56.450, 1003.450 56, 1004 56 C 1005.739 56, 1005.082 59.616, 1003 61.500 C 999.914 64.293, 1000.482 66, 1004.500 66 C 1006.786 66, 1008 65.528, 1008 64.639 C 1008 63.717, 1007.112 63.415, 1005.250 63.704 L 1002.500 64.131 1005.250 61.982 C 1010.209 58.107, 1007.868 52.395, 1002.250 54.662 M 1015.585 55.906 C 1013.306 58.425, 1013.842 63.839, 1016.546 65.623 C 1021.286 68.751, 1025.641 59.784, 1021.429 55.571 C 1019.350 53.493, 1017.682 53.589, 1015.585 55.906 M 1029.114 55.363 C 1028.164 56.507, 1028.170 56.987, 1029.142 57.588 C 1029.836 58.017, 1030.555 57.835, 1030.774 57.177 C 1031.397 55.308, 1033 55.812, 1033 57.878 C 1033 58.910, 1032.300 60.336, 1031.445 61.045 C 1030.590 61.755, 1029.450 63.160, 1028.910 64.168 C 1028.035 65.803, 1028.363 66, 1031.965 66 C 1034.702 66, 1036 65.562, 1036 64.639 C 1036 63.701, 1035.145 63.431, 1033.250 63.770 L 1030.500 64.263 1033.472 61.095 C 1035.853 58.557, 1036.230 57.587, 1035.370 56.214 C 1033.964 53.971, 1030.644 53.520, 1029.114 55.363 M 1042.372 55.473 C 1042.032 56.360, 1042.095 57.404, 1042.513 57.793 C 1042.932 58.182, 1043.475 57.938, 1043.720 57.250 C 1043.966 56.563, 1044.579 56, 1045.083 56 C 1046.464 56, 1046.185 58.764, 1044.750 59.302 C 1043.886 59.626, 1044.118 60.248, 1045.500 61.318 C 1047.100 62.556, 1047.251 63.118, 1046.254 64.129 C 1045.251 65.145, 1044.743 65.031, 1043.656 63.545 C 1042.721 62.265, 1042.087 62.051, 1041.594 62.849 C 1040.467 64.672, 1041.875 66, 1044.937 66 C 1048.968 66, 1050.794 63.535, 1048.577 61.085 C 1047.261 59.631, 1047.174 59.100, 1048.189 58.732 C 1049.187 58.371, 1049.237 57.809, 1048.398 56.379 C 1046.962 53.931, 1043.182 53.363, 1042.372 55.473 M 1017.193 60.172 C 1017.632 66.139, 1020 66.485, 1020 60.583 C 1020 57.101, 1019.626 56, 1018.443 56 C 1017.232 56, 1016.954 56.930, 1017.193 60.172 M 115 68.552 C 115 70.386, 115.393 70.786, 116.699 70.285 C 117.762 69.877, 117.950 69.483, 117.199 69.233 C 116.540 69.013, 116 68.421, 116 67.917 C 116 66.539, 118.758 66.814, 119.338 68.250 C 119.741 69.250, 119.858 69.250, 119.921 68.250 C 120.073 65.846, 121.870 67.025, 122.207 69.750 C 122.546 72.489, 122.550 72.487, 123.088 69.333 C 123.626 66.184, 123.606 66.167, 119.315 66.167 C 115.434 66.167, 115 66.407, 115 68.552 M 175.093 69 C 175.131 71.807, 175.303 72.104, 175.963 70.500 C 176.718 68.664, 176.844 68.644, 177.500 70.250 C 178.664 73.102, 180.010 72.247, 179.864 68.750 C 179.752 66.073, 179.647 65.932, 179.268 67.949 L 178.809 70.398 176.927 67.949 L 175.044 65.500 175.093 69 M 143 70.239 C 143 71.255, 143.740 71.994, 144.750 71.985 C 146.246 71.972, 146.282 71.828, 145 71 C 143.703 70.162, 143.725 70.029, 145.167 70.015 C 146.083 70.007, 147.017 70.551, 147.241 71.224 C 147.466 71.898, 147.897 71.502, 148.199 70.346 C 148.668 68.553, 148.326 68.261, 145.874 68.361 C 143.841 68.444, 143 68.994, 143 70.239" stroke="none" fill="#33835c" fill-rule="evenodd"/></svg>